<svg width="576" height="296" viewBox="0 0 576 296" fill="none" xmlns="http://www.w3.org/2000/svg">
<path d="M105.715 239.678H0V198.567L100.681 4.11111H161.089V198.567H187.266V239.678H161.089V291.889H105.715V239.678ZM105.715 198.567V86.3334H104.708L50.3404 198.567H105.715Z" fill="#F7413D"/>
<path d="M287.497 296C260.313 296 239.505 289.696 225.074 277.089C210.644 264.482 203.428 246.667 203.428 223.644V72.3556C203.428 49.3333 210.644 31.5185 225.074 18.9111C239.505 6.3037 260.313 0 287.497 0C314.68 0 335.488 6.3037 349.919 18.9111C364.35 31.5185 371.565 49.3333 371.565 72.3556V223.644C371.565 246.667 364.35 264.482 349.919 277.089C335.488 289.696 314.68 296 287.497 296ZM287.497 254.889C306.626 254.889 316.191 245.433 316.191 226.522V69.4778C316.191 50.5667 306.626 41.1111 287.497 41.1111C268.367 41.1111 258.803 50.5667 258.803 69.4778V226.522C258.803 245.433 268.367 254.889 287.497 254.889Z" fill="#F7413D"/>
<path d="M494.449 239.678H388.734V198.567L489.414 4.11111H549.823V198.567H576V239.678H549.823V291.889H494.449V239.678ZM494.449 198.567V86.3334H493.442L439.074 198.567H494.449Z" fill="#F7413D"/>
</svg>
