<svg width="24" height="25" viewBox="0 0 24 25" fill="none" xmlns="http://www.w3.org/2000/svg">
<path d="M21.3361 2H2.66406V4.73413C2.66406 5.17438 3.02181 5.53212 3.46206 5.53212C3.84869 5.53212 4.17719 5.26475 4.24244 4.89688C4.49256 3.49025 5.25381 2.71775 6.38781 2.71775H6.42006C7.47156 2.73163 8.06556 3.23562 8.64006 3.72275C9.27906 4.26463 9.88281 4.77725 11.2096 4.77725H11.2587C12.6466 4.76413 13.0073 4.28675 13.3891 3.78163C13.7052 3.3635 14.0629 2.88913 14.9303 2.87488C16.0009 2.852 16.3294 3.45612 16.5724 3.89337C16.7839 4.27362 16.9039 4.45775 17.3131 4.49225C17.9607 4.5425 18.2161 4.22487 18.5783 3.6965C18.8479 3.30238 19.1536 2.85612 19.7367 2.82388C20.3322 2.78637 20.8962 3.04475 21.3372 3.49475V2.00075L21.3361 2Z" fill="white"/>
<path d="M9.57812 11.6855V14.957H11.9999H14.4216V11.6855H11.9999H9.57812Z" fill="white"/>
<path d="M12.375 10.9356H14.7968H17.2189V7.66406H12.375V10.9356Z" fill="white"/>
<path d="M6.78125 10.9356H9.20337H11.6251V7.66406H6.78125V10.9356Z" fill="white"/>
<path d="M3.98438 15.707H6.03113V18.9789H3.98438V15.707Z" fill="white"/>
<path d="M3.98438 7.66406H6.03113V10.9359H3.98438V7.66406Z" fill="white"/>
<path d="M17.9688 7.66406H20.0155V10.9359H17.9688V7.66406Z" fill="white"/>
<path d="M3.98438 14.957H6.40613H8.82825V11.6855H6.40613H3.98438V14.957Z" fill="white"/>
<path d="M21.3364 4.95277C21.1208 4.22902 20.5212 3.5334 19.7779 3.57202C19.5736 3.58327 19.4311 3.77752 19.1967 4.1199C18.8464 4.6314 18.3687 5.3349 17.2504 5.2389C16.4247 5.1699 16.1314 4.64265 15.9169 4.25752C15.6934 3.85665 15.5588 3.60502 14.9423 3.62452C14.4402 3.63277 14.2696 3.8589 13.9868 4.23315C13.5799 4.7724 13.0223 5.5104 11.2654 5.5269C11.2467 5.5269 11.2276 5.5269 11.2096 5.5269C9.60756 5.5269 8.83619 4.87252 8.15481 4.29465C7.61669 3.83827 7.19219 3.4779 6.41069 3.46777H6.38969C5.63894 3.46777 5.16494 3.9924 4.98081 5.02777C4.85181 5.75452 4.21319 6.28215 3.46206 6.28215C3.16919 6.28215 2.89806 6.1959 2.66406 6.05377V6.91327H21.3364V4.95202V4.95277Z" fill="white"/>
<path d="M8.82825 19.7285H6.40613H3.98438V23.0004H8.82825V19.7285Z" fill="white"/>
<path d="M17.9688 15.707H20.0155V18.9789H17.9688V15.707Z" fill="white"/>
<path d="M15.1719 11.6855V14.957H17.594H20.0157V11.6855H17.594H15.1719Z" fill="white"/>
<path d="M17.2189 18.9785V15.707H14.7968H12.375V18.9785H14.7968H17.2189Z" fill="white"/>
<path d="M20.0157 19.7285H17.594H15.1719V23.0004H20.0157V19.7285Z" fill="white"/>
<path d="M14.4216 19.7285H11.9999H9.57812V23.0004H14.4216V19.7285Z" fill="white"/>
<path d="M11.6251 18.9785V15.707H9.20337H6.78125V18.9785H9.20337H11.6251Z" fill="white"/>
</svg>
