<svg width="24" height="20" viewBox="0 0 24 20" fill="none" xmlns="http://www.w3.org/2000/svg">
<path d="M7.0537 1.90027C6.081 1.73995 5.17631 1.23033 4.50309 0.448125C4.25794 0.163313 3.90211 0 3.52688 0C3.15159 0 2.79577 0.163359 2.55066 0.448125C1.87744 1.23033 0.972703 1.73995 0 1.90027V10.1671C0.558516 10.024 1.07522 9.7035 1.47483 9.23925C1.98989 8.64084 2.73783 8.29762 3.52688 8.29762C4.31592 8.29762 5.06381 8.64084 5.57888 9.23925C5.97848 9.7035 6.49523 10.024 7.0537 10.1671V1.90027Z" fill="white"/>
<path d="M24 1.90027C23.0273 1.73995 22.1226 1.23033 21.4493 0.448125C21.2042 0.163313 20.8484 0 20.4731 0C20.0979 0 19.7421 0.163359 19.4969 0.448125C18.8237 1.23033 17.9189 1.73995 16.9463 1.90027V10.1671C17.5048 10.024 18.0215 9.7035 18.4211 9.23925C18.9362 8.64084 19.6841 8.29762 20.4731 8.29762C21.2621 8.29762 22.0101 8.64084 22.5252 9.23925C22.9248 9.7035 23.4415 10.024 24 10.1671V1.90027Z" fill="white"/>
<path d="M22.5252 18.956C22.9248 19.4204 23.4414 19.7419 24 19.885V11.6171C23.0273 11.4568 22.1226 10.9471 21.4494 10.165C21.2042 9.88016 20.8484 9.7168 20.4731 9.7168C20.0979 9.7168 19.7421 9.88016 19.4969 10.165C18.8237 10.9471 17.9189 11.4568 16.9463 11.6171V19.885C17.5049 19.7419 18.0215 19.4203 18.4211 18.956C18.9362 18.3576 19.6841 18.0144 20.4731 18.0144C21.2621 18.0144 22.0101 18.3576 22.5252 18.956Z" fill="white"/>
<path d="M14.0515 18.956C14.4512 19.4204 14.9678 19.7419 15.5264 19.885V11.6171C14.5538 11.4568 13.649 10.9471 12.9757 10.165C12.7306 9.88016 12.3748 9.7168 11.9995 9.7168C11.6243 9.7168 11.2685 9.88016 11.0233 10.165C10.3501 10.9471 9.44531 11.4568 8.47266 11.6171V19.885C9.03127 19.7419 9.54783 19.4204 9.94753 18.956C10.4626 18.3576 11.2105 18.0144 11.9995 18.0144C12.7885 18.0144 13.5365 18.3576 14.0515 18.956Z" fill="white"/>
<path d="M8.47266 10.1671C9.03117 10.024 9.54792 9.7035 9.94753 9.23925C10.4626 8.64084 11.2105 8.29762 11.9995 8.29762C12.7885 8.29762 13.5365 8.64084 14.0515 9.23925C14.4511 9.7035 14.9679 10.024 15.5264 10.1671V1.90008C14.5538 1.73972 13.649 1.23028 12.9757 0.448125C12.7306 0.163313 12.3748 0 11.9995 0C11.6243 0 11.2685 0.163359 11.0233 0.448125C10.3501 1.23028 9.44531 1.73972 8.47266 1.90008V10.1671Z" fill="white"/>
<path d="M7.0537 19.885V11.6171C6.08105 11.4568 5.17631 10.9471 4.50309 10.165C4.25794 9.88016 3.90211 9.7168 3.52688 9.7168C3.15164 9.7168 2.79581 9.88016 2.55066 10.165C1.87744 10.9471 0.972703 11.4568 0 11.6171V19.885C0.558609 19.7419 1.07517 19.4204 1.47483 18.956C1.98989 18.3576 2.73783 18.0144 3.52688 18.0144C4.31592 18.0144 5.06381 18.3576 5.57888 18.956C5.97853 19.4204 6.49514 19.7419 7.0537 19.885Z" fill="white"/>
</svg>
