<svg width="85" height="85" viewBox="0 0 85 85" fill="none" xmlns="http://www.w3.org/2000/svg">
<path d="M66.0515 14.6021C50.6426 1.59409 27.6052 3.54146 14.5975 18.9489C1.59058 34.3593 3.5371 57.3953 18.9463 70.4027C34.3552 83.411 57.3904 81.4623 70.3972 66.0548C83.407 50.6459 81.4604 27.6107 66.0515 14.6021Z" fill="#201D1D"/>
<path d="M65.9575 14.8245C50.6152 1.87285 27.6772 3.81196 14.7262 19.1525C1.77569 34.4962 3.71366 57.4325 19.0562 70.3838C34.3984 83.3357 57.3339 81.3955 70.2844 66.0546C83.238 50.7124 81.2997 27.7769 65.9575 14.8245Z" fill="#010100"/>
<path d="M65.8621 15.0461C50.5863 2.15065 27.7482 4.08121 14.853 19.3554C1.95867 34.6324 3.88838 57.469 19.1643 70.3642C34.4401 83.26 57.2759 81.3283 70.1702 66.0541C83.0674 50.7783 81.1374 27.9425 65.8621 15.0461Z" fill="#020101"/>
<path d="M65.7651 15.2686C50.5562 2.42948 27.8176 4.3515 14.9788 19.5593C2.14084 34.7696 4.062 57.5068 19.2712 70.3456C34.4804 83.185 57.2165 81.2616 70.0544 66.0541C82.8955 50.8449 80.9741 28.1085 65.7651 15.2686Z" fill="#030201"/>
<path d="M65.6706 15.4912C50.528 2.70819 27.8894 4.62195 15.1064 19.7628C2.32487 34.9065 4.23778 57.544 19.38 70.3264C34.5226 83.1099 57.1592 81.1947 69.9411 66.0536C82.7258 50.9113 80.8129 28.2747 65.6706 15.4912Z" fill="#040302"/>
<path d="M65.5757 15.7126C50.4998 2.98606 27.9609 4.89128 15.2344 19.9655C2.50893 35.0428 4.41328 57.5806 19.4892 70.3068C34.5651 83.0337 57.102 81.1271 69.8274 66.0529C82.556 50.9773 80.6516 28.4403 65.5757 15.7126Z" fill="#050402"/>
<path d="M65.4811 15.9341C50.4721 3.26392 28.0324 5.16058 15.3622 20.1684C2.69289 35.1788 4.58898 57.6168 19.5982 70.287C34.6074 82.9577 57.045 81.0596 69.7143 66.0518C82.3864 51.0429 80.4903 28.6057 65.4811 15.9341Z" fill="#060402"/>
<path d="M65.3848 16.1568C50.4422 3.54246 28.1022 5.43115 15.4881 20.372C2.87492 35.3157 4.76275 57.6547 19.705 70.2684C34.6479 82.883 56.9854 80.9932 69.5986 66.0521C82.2149 51.1095 80.3274 28.7717 65.3848 16.1568Z" fill="#070503"/>
<path d="M65.2911 16.3792C50.4149 3.82131 28.1748 5.70145 15.6169 20.5757C3.06011 35.453 4.93912 57.692 19.815 70.2496C34.6909 82.8081 56.9293 80.9265 69.4861 66.0523C82.046 51.1761 80.167 28.938 65.2911 16.3792Z" fill="#080603"/>
<path d="M65.1952 16.6017C50.386 4.10014 28.2453 5.97174 15.7438 20.7796C3.2431 35.59 5.11384 57.7295 19.9231 70.2307C34.7323 82.7328 56.871 80.8601 69.3717 66.052C81.8752 51.2427 80.0042 29.104 65.1952 16.6017Z" fill="#090603"/>
<path d="M65.1016 16.8233C50.359 4.37785 28.3174 6.24118 15.8726 20.9824C3.42803 35.7264 5.29051 57.7662 20.0331 70.211C34.7757 82.657 56.815 80.7925 69.2592 66.0511C81.7066 51.3085 79.8441 29.2695 65.1016 16.8233Z" fill="#0A0704"/>
<path d="M65.0051 17.0459C50.3289 4.65663 28.3874 6.51142 15.9984 21.1862C3.61021 35.8636 5.46414 57.8037 20.1401 70.1927C34.8163 82.5823 56.7556 80.7261 69.144 66.0515C81.535 51.3753 79.6811 29.4361 65.0051 17.0459Z" fill="#0B0804"/>
<path d="M64.911 17.2684C50.3015 4.93551 28.4596 6.78175 16.127 21.3896C3.79528 36.0003 5.64067 57.8407 20.2502 70.1736C34.8598 82.5068 56.6996 80.6594 69.0314 66.0512C81.366 51.442 79.5206 29.6021 64.911 17.2684Z" fill="#0C0905"/>
<path d="M64.8144 17.4909C50.2718 5.21417 28.5294 7.05215 16.2529 21.5936C3.97729 36.1379 5.81442 57.8787 20.3573 70.1551C34.9002 82.4322 56.6404 80.5928 68.916 66.0516C81.1945 51.5087 79.357 29.7685 64.8144 17.4909Z" fill="#0D0905"/>
<path d="M64.7208 17.7124C50.2445 5.49204 28.6018 7.32148 16.3817 21.7963C4.16222 36.2737 5.99109 57.9153 20.4673 70.1353C34.9436 82.3563 56.584 80.5254 68.8035 66.0506C81.0253 51.574 79.1967 29.9336 64.7208 17.7124Z" fill="#0E0A05"/>
<path d="M64.6241 17.935C50.2146 5.77073 28.6713 7.5919 16.5076 22.0001C4.34449 36.4108 6.16453 57.9524 20.5744 70.1163C34.984 82.2808 56.5247 80.4585 68.6884 66.0507C80.8538 51.6408 79.0334 30.0998 64.6241 17.935Z" fill="#0F0B06"/>
<path d="M64.5295 18.1574C50.1866 6.04958 28.7433 7.86221 16.6354 22.2037C4.52845 36.5481 6.34022 57.9902 20.6834 70.0975C35.0264 82.2059 56.4677 80.3918 68.5749 66.0503C80.6842 51.7071 78.8721 30.2661 64.5295 18.1574Z" fill="#100B06"/>
<path d="M64.435 18.38C50.1585 6.32827 28.8149 8.13263 16.7632 22.4075C4.7126 36.6852 6.51583 58.0276 20.7921 70.0791C35.0684 82.1313 56.4103 80.3258 68.4608 66.0507C80.5145 51.7744 78.711 30.4325 64.435 18.38Z" fill="#110C06"/>
<path d="M64.3391 18.6017C50.1292 6.60607 28.885 8.40189 16.89 22.6104C4.89556 36.8214 6.69053 58.0639 20.9004 70.0592C35.11 82.0548 56.3522 80.2578 68.3467 66.0496C80.3434 51.84 78.5481 30.5978 64.3391 18.6017Z" fill="#120D07"/>
<path d="M64.2445 18.824C50.1016 6.88483 28.9568 8.67239 17.0176 22.8139C5.07959 36.9583 6.8663 58.1016 21.0092 70.0402C35.1525 81.98 56.295 80.1913 68.2333 66.0498C80.1739 51.9066 78.3872 30.7641 64.2445 18.824Z" fill="#130D07"/>
<path d="M64.1499 19.0466C50.0733 7.16378 29.0283 8.94251 17.1455 23.0177C5.26358 37.0954 7.04202 58.139 21.118 70.0215C35.1946 81.9048 56.2374 80.1247 68.1196 66.0495C80.0044 51.9733 78.2259 30.9305 64.1499 19.0466Z" fill="#140E08"/>
<path d="M64.0551 19.2683C50.0452 7.44132 29.0998 9.21207 17.2734 23.2206C5.44763 37.2316 7.21753 58.1755 21.2272 70.0019C35.2371 81.8289 56.1804 80.0573 68.0062 66.0491C79.8346 52.0392 78.0647 31.0961 64.0551 19.2683Z" fill="#150F08"/>
<path d="M63.9584 19.4896C50.0151 7.7191 29.1695 9.48159 17.3992 23.4231C5.6298 37.3675 7.39115 58.212 21.3341 69.9823C35.2774 81.7531 56.121 79.9898 67.8907 66.048C79.663 52.1047 77.9013 31.2613 63.9584 19.4896Z" fill="#161008"/>
<path d="M63.864 19.7133C49.9874 7.99886 29.2412 9.7528 17.527 23.628C5.81376 37.5057 7.56685 58.2505 21.4432 69.9644C35.3197 81.6791 56.0637 79.924 67.7773 66.0488C79.4931 52.1722 77.7403 31.4283 63.864 19.7133Z" fill="#171009"/>
<path d="M63.7693 19.9357C49.959 8.27771 29.3125 10.0231 17.6548 23.8316C5.99789 37.643 7.74243 58.2878 21.5521 69.9458C35.3623 81.6041 56.0065 79.8576 67.664 66.0491C79.3234 52.2389 77.5786 31.5946 63.7693 19.9357Z" fill="#181109"/>
<path d="M63.6743 20.1571C49.931 8.55547 29.3839 10.2926 17.7826 24.0345C6.18185 37.7789 7.91813 58.3246 21.6611 69.9259C35.4044 81.5281 55.9495 79.7898 67.5503 66.0482C79.1536 52.3047 77.4173 31.7598 63.6743 20.1571Z" fill="#191209"/>
<path d="M63.5786 20.3788C49.902 8.83329 29.4543 10.5619 17.9094 24.2371C6.365 37.9151 8.09273 58.3611 21.7691 69.906C35.4457 81.4518 55.8911 79.7221 67.4357 66.0469C78.9827 52.3703 77.2549 31.9251 63.5786 20.3788Z" fill="#1A120A"/>
<path d="M63.4842 20.6012C49.8742 9.11212 29.5263 10.8322 18.0372 24.441C6.54893 38.0521 8.2684 58.3986 21.8784 69.8874C35.4883 81.3768 55.834 79.6556 67.3225 66.0474C78.8133 52.4369 77.0939 32.0915 63.4842 20.6012Z" fill="#1B130A"/>
<path d="M63.3895 20.8238C49.846 9.39083 29.598 11.1026 18.165 24.6445C6.73315 38.1889 8.44379 58.4358 21.9874 69.8685C35.5307 81.3017 55.7769 79.5891 67.2091 66.0472C78.6435 52.5036 76.9328 32.2579 63.3895 20.8238Z" fill="#1C140B"/>
<path d="M63.293 21.0464C49.8158 9.66952 29.6676 11.373 18.291 24.8482C6.91499 38.3263 8.61766 58.4735 22.0946 69.85C35.5712 81.2272 55.7178 79.5228 67.0938 66.0473C78.4718 52.5704 76.7691 32.4241 63.293 21.0464Z" fill="#1D150B"/>
<path d="M63.199 21.2678C49.7887 9.94739 29.7399 11.6424 18.4197 25.0509C7.10012 38.4623 8.79424 58.5098 22.2042 69.8299C35.6145 81.1507 55.6613 79.4548 66.9809 66.0463C78.3028 52.636 76.609 32.5894 63.199 21.2678Z" fill="#1E150B"/>
<path d="M63.1025 21.4905C49.7589 10.2262 29.8095 11.9126 18.5455 25.2548C7.28226 38.5995 8.96784 58.5475 22.3114 69.8113C35.655 81.0759 55.6022 79.3886 66.8657 66.0462C78.1314 52.7029 76.4459 32.7557 63.1025 21.4905Z" fill="#1F160C"/>
<path d="M63.0076 21.7131C49.7307 10.5049 29.8809 12.183 18.6733 25.4585C7.46622 38.7366 9.14354 58.5849 22.4205 69.7926C35.6974 81.0008 55.5452 79.3218 66.7522 66.0463C77.9616 52.7693 76.2843 32.9219 63.0076 21.7131Z" fill="#20170C"/>
<path d="M62.9123 21.9355C49.7017 10.7837 29.9517 12.4533 18.8002 25.6622C7.64921 38.8736 9.31826 58.6225 22.5285 69.774C35.7388 80.9261 55.4869 79.2554 66.6378 66.0468C77.7911 52.8359 76.122 33.0882 62.9123 21.9355Z" fill="#21170C"/>
<path d="M62.8176 22.1579C49.6737 11.0625 30.0233 12.7236 18.9279 25.8661C7.83336 39.0109 9.49387 58.6598 22.6372 69.7552C35.7808 80.8509 55.4295 79.1886 66.5243 66.0464C77.6214 52.9025 75.9609 33.2545 62.8176 22.1579Z" fill="#22180D"/>
<path d="M62.7228 22.3805C49.6455 11.3412 30.0949 12.994 19.0556 26.0699C8.01746 39.148 9.66942 58.6975 22.7464 69.7365C35.8233 80.776 55.3723 79.1224 66.411 66.0465C77.4514 52.9693 75.7994 33.4207 62.7228 22.3805Z" fill="#23190D"/>
<path d="M62.6281 22.6031C49.6178 11.6199 30.1663 13.2645 19.1834 26.2736C8.20142 39.2854 9.84512 58.7351 22.8554 69.718C35.8657 80.7012 55.3152 79.0558 66.2975 66.0469C77.2818 53.036 75.6381 33.5871 62.6281 22.6031Z" fill="#241A0E"/>
<path d="M62.5323 22.8236C49.5884 11.8968 30.2369 13.5328 19.3104 26.4751C8.38452 39.4201 10.0197 58.7702 22.9633 69.697C35.9072 80.624 55.2565 78.9872 66.1827 66.0447C77.1111 53.1007 75.476 33.7512 62.5323 22.8236Z" fill="#251A0E"/>
<path d="M62.4377 23.0471C49.5604 12.1765 30.3086 13.8042 19.4383 26.6801C8.56848 39.5585 10.1954 58.8088 23.0724 69.6792C35.9496 80.5499 55.1994 78.9215 66.0695 66.0457C76.9413 53.1681 75.3144 33.9186 62.4377 23.0471Z" fill="#261B0E"/>
<path d="M62.3431 23.2676C49.5325 12.4534 30.3798 14.0726 19.5659 26.8818C8.75277 39.6935 10.3708 58.8445 23.1812 69.6584C35.9918 80.4729 55.1422 78.8529 65.9558 66.0437C76.7712 53.2331 75.1531 34.0827 62.3431 23.2676Z" fill="#271C0F"/>
<path d="M62.2485 23.4902C49.5045 12.7321 30.4516 14.343 19.6937 27.0855C8.93647 39.8306 10.5468 58.8819 23.2902 69.6397C36.0342 80.3978 55.0849 78.7863 65.8424 66.0438C76.6019 53.2998 74.9919 34.2491 62.2485 23.4902Z" fill="#281C0F"/>
<path d="M62.1516 23.7136C49.4743 13.0119 30.5211 14.6143 19.8194 27.2901C9.11878 39.9683 10.7203 58.9201 23.3973 69.6218C36.0746 80.3238 55.0259 78.7206 65.727 66.0447C76.4299 53.3671 74.8286 34.4162 62.1516 23.7136Z" fill="#291D0F"/>
<path d="M62.0572 23.9353C49.4463 13.2897 30.5927 14.8835 19.9474 27.493C9.30267 40.1051 10.8959 58.9569 23.5066 69.6022C36.1172 80.2481 54.9688 78.6531 65.6138 66.0442C76.2605 53.433 74.6675 34.5817 62.0572 23.9353Z" fill="#2A1E10"/>
<path d="M61.9621 24.1576C49.4179 13.5685 30.664 15.154 20.0751 27.6966C9.4868 40.2417 11.0715 58.9941 23.6155 69.5833C36.1595 80.1728 54.9116 78.5863 65.5002 66.0438C76.0903 53.4993 74.5058 34.7477 61.9621 24.1576Z" fill="#2B1E10"/>
<path d="M61.8676 24.3803C49.39 13.8473 30.7359 15.4243 20.2031 27.9002C9.67087 40.3789 11.2471 59.0316 23.7244 69.5644C36.2017 80.0978 54.8541 78.5199 65.3866 66.044C75.9208 53.5664 74.3449 34.9142 61.8676 24.3803Z" fill="#2C1F11"/>
<path d="M61.772 24.6029C49.3611 14.1259 30.8063 15.6947 20.33 28.1042C9.85385 40.516 11.4218 59.0693 23.8324 69.546C36.2431 80.0229 54.7958 78.4536 65.2722 66.0441C75.75 53.6331 74.1821 35.0807 61.772 24.6029Z" fill="#2D2011"/>
<path d="M61.6762 24.8243C49.332 14.4038 30.8769 15.964 20.4567 28.3069C10.037 40.6523 11.5964 59.1059 23.9406 69.5261C36.2846 79.947 54.7376 78.3859 65.1576 66.043C75.5796 53.699 74.0202 35.246 61.6762 24.8243Z" fill="#2E2111"/>
<path d="M61.5816 25.0469C49.304 14.6825 30.9484 16.2344 20.5843 28.5106C10.221 40.7891 11.7721 59.1433 24.0497 69.5074C36.327 79.8719 54.6807 78.3196 65.0445 66.0434C75.4098 53.7655 73.859 35.4122 61.5816 25.0469Z" fill="#2F2112"/>
<path d="M61.488 25.2693C49.277 14.9613 31.0211 16.5047 20.7131 28.7145C10.406 40.9264 11.9488 59.1808 24.1595 69.4888C36.3704 79.7969 54.6243 78.2529 64.9318 66.0433C75.2409 53.8321 73.6984 35.5785 61.488 25.2693Z" fill="#302212"/>
<path d="M61.3914 25.4919C49.2471 15.24 31.0906 16.7752 20.839 28.918C10.5882 41.0635 12.1223 59.2183 24.2663 69.4699C36.4106 79.7218 54.5651 78.1863 64.8164 66.0432C75.0692 53.8986 73.5348 35.7447 61.3914 25.4919Z" fill="#312312"/>
<path d="M61.2968 25.7134C49.2191 15.5179 31.1623 17.0445 20.9668 29.1207C10.7722 41.1995 12.298 59.2549 24.3753 69.4501C36.453 79.6459 54.5077 78.1187 64.7027 66.0425C74.8996 53.9645 73.3741 35.91 61.2968 25.7134Z" fill="#322313"/>
<path d="M61.2011 25.9361C49.1899 15.7967 31.2331 17.3147 21.0937 29.3246C10.9552 41.3367 12.4727 59.2923 24.4834 69.4314C36.4946 79.5708 54.4494 78.0522 64.5882 66.0426C74.7288 54.0311 73.2115 36.0763 61.2011 25.9361Z" fill="#332413"/>
<path d="M61.1053 26.1584C49.1607 16.0754 31.3034 17.5852 21.2207 29.5284C11.1383 41.4738 12.6472 59.3295 24.5915 69.4128C36.5359 79.496 54.3915 77.9856 64.4742 66.0425C74.5583 54.0979 73.0494 36.2425 61.1053 26.1584Z" fill="#342514"/>
<path d="M61.0106 26.38C49.1326 16.3531 31.375 17.8547 21.3484 29.7309C11.3224 41.6097 12.8228 59.366 24.7005 69.3928C36.5781 79.4197 54.3341 77.9178 64.3606 66.0413C74.3883 54.1634 72.8879 36.408 61.0106 26.38Z" fill="#352614"/>
<path d="M60.916 26.6017C49.1047 16.6309 31.4464 18.1239 21.476 29.9338C11.5064 41.7459 12.9985 59.4028 24.8095 69.3732C36.6205 79.3439 54.2771 77.8504 64.2469 66.0405C74.2185 54.2289 72.7264 36.5733 60.916 26.6017Z" fill="#362614"/>
<path d="M60.8213 26.8241C49.0764 16.9098 31.5182 18.3943 21.6038 30.1375C11.6904 41.8829 13.1742 59.44 24.9186 69.3544C36.6632 79.2687 54.2197 77.7837 64.1335 66.0405C74.049 54.2956 72.5654 36.7396 60.8213 26.8241Z" fill="#372715"/>
<path d="M60.7257 27.0466C49.0478 17.1886 31.5886 18.6646 21.7307 30.3411C11.8734 42.0199 13.349 59.4776 25.0264 69.3355C36.7043 79.1938 54.1615 77.717 64.0191 66.0407C73.8782 54.3625 72.4031 36.9056 60.7257 27.0466Z" fill="#382815"/>
<path d="M60.6307 27.2691C49.0194 17.4673 31.66 18.935 21.8584 30.5449C12.0575 42.1573 13.5246 59.515 25.1353 69.3171C36.7466 79.1189 54.104 77.6507 63.9055 66.0408C73.7082 54.4292 72.2417 37.0721 60.6307 27.2691Z" fill="#392815"/>
<path d="M60.5364 27.4907C48.9915 17.745 31.7318 19.2044 21.9864 30.7479C12.2415 42.2934 13.7 59.5517 25.2447 69.2971C36.7891 79.0428 54.0471 77.5831 63.7922 66.0396C73.5387 54.4947 72.0802 37.2372 60.5364 27.4907Z" fill="#3A2916"/>
<path d="M60.4418 27.7133C48.9635 18.0237 31.8035 19.4748 22.1142 30.9517C12.4255 42.4305 13.8758 59.5891 25.3535 69.2787C36.8315 78.9682 53.9897 77.5165 63.6787 66.04C73.3689 54.5617 71.9192 37.404 60.4418 27.7133Z" fill="#3B2A16"/>
<path d="M60.3448 27.9356C48.9334 18.3027 31.8729 19.745 22.24 31.1552C12.6077 42.5677 14.0494 59.6265 25.4604 69.2597C36.8718 78.8929 53.9304 77.45 63.563 66.0398C73.197 54.6282 71.7558 37.5699 60.3448 27.9356Z" fill="#3C2B17"/>
<path d="M60.2501 28.1582C48.9052 18.5814 31.9443 20.0155 22.3678 31.3587C12.7916 42.7045 14.2251 59.664 25.5695 69.2407C36.9141 78.8178 53.873 77.3832 63.4498 66.0396C73.0274 54.695 71.5942 37.7364 60.2501 28.1582Z" fill="#3D2B17"/>
<path d="M60.1549 28.3798C48.8766 18.8591 32.0154 20.2849 22.4948 31.5618C12.9747 42.8409 14.3996 59.7007 25.6776 69.221C36.9559 78.7419 53.8151 77.3156 63.3355 66.039C72.8572 54.7604 71.4326 37.9015 60.1549 28.3798Z" fill="#3E2C17"/>
<path d="M60.0589 28.6024C48.8473 19.1379 32.0858 20.5551 22.6213 31.7656C13.1579 42.9781 14.5743 59.7381 25.7856 69.2027C36.997 78.6672 53.757 77.2494 63.221 66.0392C72.6861 54.8273 71.27 38.0678 60.0589 28.6024Z" fill="#3F2D18"/>
<path d="M59.9652 28.8249C48.82 19.4167 32.1582 20.8254 22.7501 31.9693C13.3428 43.1151 14.751 59.7757 25.8956 69.1838C37.0406 78.592 53.7007 77.183 63.1085 66.0394C72.5172 54.8939 71.1094 38.2341 59.9652 28.8249Z" fill="#402D18"/>
<path d="M59.8697 29.0475C48.7914 19.6955 32.2288 21.0959 22.8771 32.1728C13.5259 43.2522 14.9255 59.8131 26.0038 69.1651C37.0821 78.5171 53.6425 77.1161 62.9945 66.0393C72.3467 54.9604 70.9472 38.4003 59.8697 29.0475Z" fill="#412E18"/>
<path d="M59.775 29.2678C48.763 19.9722 32.3004 21.3644 23.0048 32.3746C13.7101 43.3871 15.1011 59.8484 26.1125 69.1442C37.1241 78.4398 53.585 77.0477 62.8804 66.0372C72.1768 55.0252 70.7858 38.5646 59.775 29.2678Z" fill="#422F19"/>
<path d="M59.6795 29.4905C48.7342 20.251 32.371 21.6346 23.1318 32.5785C13.8929 43.5246 15.2759 59.8861 26.2206 69.1256C37.1659 78.3651 53.5271 76.9812 62.7663 66.0373C72.0064 55.0918 70.6239 38.7311 59.6795 29.4905Z" fill="#432F19"/>
<path d="M59.5847 29.7139C48.7061 20.5309 32.4426 21.9059 23.2595 32.7829C14.077 43.662 15.4515 59.9244 26.3296 69.1075C37.2079 78.2906 53.4694 76.9152 62.6525 66.0383C71.8364 55.1594 70.4625 38.8979 59.5847 29.7139Z" fill="#44301A"/>
<path d="M59.4898 29.9365C48.6778 20.8095 32.514 22.1763 23.3874 32.9869C14.261 43.7994 15.6272 59.9618 26.4386 69.0887C37.2503 78.2157 53.4124 76.8486 62.5393 66.0381C71.6666 55.2261 70.3009 39.0646 59.4898 29.9365Z" fill="#45311A"/>
<path d="M59.3942 30.1581C48.6489 21.0872 32.5845 22.4458 23.514 33.1897C14.4443 43.9358 15.8017 59.9985 26.5464 69.0693C37.2917 78.1402 53.3541 76.7813 62.4247 66.0375C71.4961 55.2919 70.1387 39.2298 59.3942 30.1581Z" fill="#46321A"/>
<path d="M59.2985 30.3795C48.6198 21.3651 32.6551 22.7151 23.6407 33.3923C14.6271 44.0718 15.9766 60.0351 26.6546 69.0495C37.333 78.0642 53.296 76.7137 62.3101 66.0364C71.3254 55.3575 69.9765 39.3951 59.2985 30.3795Z" fill="#47321B"/>
<path d="M59.2038 30.6022C48.5918 21.6439 32.7268 22.9854 23.7685 33.5959C14.8114 44.2088 16.152 60.0723 26.7637 69.0309C37.3756 77.9889 53.2389 76.6472 62.1967 66.0366C71.1555 55.4244 69.8152 39.5617 59.2038 30.6022Z" fill="#48331B"/>
<path d="M59.1092 30.8236C48.5636 21.9217 32.7983 23.2549 23.8964 33.7988C14.9954 44.3447 16.3277 60.1088 26.8724 69.0107C37.4178 77.9126 53.1816 76.5791 62.0829 66.0355C70.9857 55.4899 69.6539 39.7266 59.1092 30.8236Z" fill="#49341B"/>
<path d="M59.0145 31.0462C48.5356 22.2004 32.8697 23.5253 24.0242 34.0025C15.1793 44.482 16.5034 60.1465 26.9817 68.9923C37.4601 77.8378 53.1243 76.5128 61.9698 66.0356C70.8161 55.5567 69.4926 39.8931 59.0145 31.0462Z" fill="#4A341C"/>
<path d="M58.919 31.2686C48.5067 22.4792 32.9406 23.7956 24.1512 34.2062C15.3624 44.619 16.6779 60.1838 27.0896 68.9734C37.5016 77.7628 53.0661 76.4464 61.8555 66.0356C70.6454 55.6233 69.3304 40.0591 58.919 31.2686Z" fill="#4B351C"/>
<path d="M58.8244 31.4911C48.4788 22.7579 33.0123 24.066 24.279 34.4102C15.5463 44.7564 16.8536 60.2214 27.1987 68.955C37.544 77.688 53.009 76.3801 61.742 66.0359C70.4761 55.69 69.1692 40.2255 58.8244 31.4911Z" fill="#4C361D"/>
<path d="M58.7293 31.7139C48.4504 23.0368 33.0833 24.3361 24.4068 34.6139C15.7305 44.8934 17.0292 60.259 27.3076 68.9359C37.586 77.613 52.9516 76.3135 61.6284 66.0356C70.3059 55.7567 69.0074 40.3919 58.7293 31.7139Z" fill="#4D371D"/>
<path d="M58.6346 31.9353C48.4223 23.3146 33.1549 24.6056 24.5345 34.8165C15.9146 45.0296 17.2048 60.2955 27.4165 68.9163C37.6288 77.537 52.8944 76.2457 61.5149 66.0348C70.1359 55.8225 68.846 40.5572 58.6346 31.9353Z" fill="#4E371D"/>
<path d="M58.537 32.1578C48.3913 23.5934 33.2237 24.8759 24.6594 35.0201C16.0956 45.1666 17.3775 60.3328 27.5226 68.8974C37.668 77.4621 52.8342 76.1793 61.3985 66.0351C69.9634 55.8888 68.6821 40.7232 58.537 32.1578Z" fill="#4F381E"/>
<path d="M58.4428 32.3803C48.3635 23.8721 33.2953 25.1463 24.7871 35.2239C16.2798 45.3037 17.5531 60.3702 27.6315 68.8787C37.7105 77.3869 52.777 76.1124 61.285 66.0349C69.794 55.9556 68.5209 40.8897 58.4428 32.3803Z" fill="#50391E"/>
<path d="M58.3479 32.603C48.3353 24.1509 33.3668 25.4166 24.915 35.4277C16.4637 45.4406 17.7288 60.4077 27.7406 68.8598C37.7529 77.3119 52.7197 76.0459 61.1715 66.035C69.6242 56.0224 68.3594 41.0559 58.3479 32.603Z" fill="#51391F"/>
<path d="M58.2523 32.8246C48.3064 24.4286 33.4376 25.686 25.0419 35.6305C16.6468 45.5771 17.9033 60.4444 27.849 68.8404C37.7944 77.2361 52.662 75.9787 61.0574 66.0341C69.4537 56.0882 68.1971 41.2214 58.2523 32.8246Z" fill="#523A1F"/>
<path d="M58.1576 33.0469C48.2783 24.7073 33.5089 25.9565 25.1696 35.8343C16.8309 45.7142 18.0789 60.4819 27.9577 68.8214C37.8367 77.161 52.6043 75.9121 60.9436 66.0343C69.2838 56.1547 68.036 41.3876 58.1576 33.0469Z" fill="#533B1F"/>
<path d="M58.0636 33.2705C48.2513 24.987 33.5813 26.2279 25.2984 36.0388C17.0159 45.852 18.2556 60.5203 28.0677 68.8037C37.88 77.0869 52.548 75.8463 60.8312 66.0351C69.1146 56.2222 67.8754 41.5548 58.0636 33.2705Z" fill="#543C20"/>
<path d="M57.968 33.49C48.222 25.2629 33.6521 26.4953 25.4253 36.2395C17.1988 45.9861 18.4303 60.5549 28.1757 68.782C37.9214 77.0087 52.49 75.7767 60.7167 66.0324C68.9443 56.2861 67.7131 41.7182 57.968 33.49Z" fill="#553C20"/>
<path d="M57.8726 33.7126C48.1932 25.5417 33.7227 26.7655 25.5521 36.4434C17.382 46.1233 18.6049 60.5924 28.2837 68.7633C37.963 76.934 52.4318 75.7102 60.6022 66.0323C68.7734 56.353 67.5507 41.8847 57.8726 33.7126Z" fill="#563D20"/>
<path d="M57.7779 33.9351C48.1653 25.8205 33.7941 27.0358 25.6799 36.6473C17.5659 46.2605 18.7806 60.63 28.3927 68.7445C38.0054 76.859 52.3748 75.6435 60.4887 66.0325C68.6038 56.4193 67.3897 42.0504 57.7779 33.9351Z" fill="#573E21"/>
<path d="M57.6831 34.1575C48.1371 26.0991 33.8657 27.3064 25.8076 36.851C17.75 46.3976 18.9562 60.6676 28.5019 68.726C38.0476 76.7844 52.317 75.5771 60.3754 66.0328C68.4341 56.4862 67.2283 42.2171 57.6831 34.1575Z" fill="#583E21"/>
<path d="M57.5875 34.3791C48.1082 26.3771 33.9365 27.5756 25.9345 37.0535C17.933 46.5337 19.1309 60.7037 28.61 68.706C38.089 76.708 52.2593 75.5092 60.261 66.0313C68.2633 56.5517 67.066 42.3823 57.5875 34.3791Z" fill="#593F22"/>
<path d="M57.4918 34.6017C48.0788 26.6558 34.0071 27.846 26.0612 37.2575C18.1162 46.6708 19.3055 60.7416 28.7176 68.6872C38.13 76.6331 52.2006 75.4429 60.1465 66.0317C68.0927 56.6184 66.9036 42.5484 57.4918 34.6017Z" fill="#5A4022"/>
<path d="M57.3972 34.8251C48.0509 26.9356 34.0786 28.1173 26.1891 37.4621C18.3002 46.809 19.481 60.7799 28.827 68.6697C38.173 76.5588 52.1439 75.3772 60.0331 66.0326C67.9229 56.686 66.7424 42.7157 57.3972 34.8251Z" fill="#5B4022"/>
<path d="M57.3026 35.0477C48.023 27.2143 34.1501 28.3877 26.317 37.6656C18.4842 46.9459 19.6567 60.8173 28.9358 68.6504C38.2152 76.4837 52.0863 75.3104 59.9197 66.0324C67.7533 56.7528 66.5811 42.8822 57.3026 35.0477Z" fill="#5C4123"/>
<path d="M57.2078 35.2672C47.9949 27.4903 34.2217 28.6551 26.4447 37.8664C18.6683 47.0799 19.8323 60.852 29.0447 68.6289C38.2574 76.4059 52.0292 75.241 59.8061 66.0295C67.5834 56.8165 66.4197 43.0453 57.2078 35.2672Z" fill="#5D4223"/>
<path d="M57.1122 35.4918C47.9659 27.771 34.2921 28.9272 26.5716 38.0724C18.8513 47.219 20.007 60.8914 29.1528 68.6122C38.2988 76.333 51.9709 75.1765 59.6917 66.0316C67.4128 56.885 66.2574 43.2135 57.1122 35.4918Z" fill="#5E4323"/>
<path d="M57.0175 35.7141C47.9375 28.0497 34.3637 29.1977 26.6993 38.276C19.0354 47.3562 20.1826 60.9289 29.2617 68.5936C38.3411 76.2577 51.9137 75.11 59.5782 66.0317C67.2429 56.9518 66.0963 43.38 57.0175 35.7141Z" fill="#5F4324"/>
<path d="M56.9228 35.9367C47.9095 28.3284 34.4351 29.4682 26.8271 38.4795C19.2194 47.4933 20.3583 60.9663 29.371 68.5746C38.3837 76.1829 51.8567 75.0434 59.465 66.0318C67.073 57.0183 65.9347 43.5459 56.9228 35.9367Z" fill="#604424"/>
<path d="M56.8251 36.1564C47.8788 28.6042 34.5036 29.7357 26.9519 38.6803C19.4006 47.6275 20.531 61.0007 29.4767 68.5529C38.4231 76.1048 51.7963 74.9739 59.3482 66.0287C66.9004 57.0824 65.7703 43.7097 56.8251 36.1564Z" fill="#614525"/>
<path d="M56.7315 36.3808C47.8518 28.8851 34.5765 30.0077 27.0808 38.8863C19.5855 47.7665 20.7076 61.0403 29.5868 68.5361C38.4662 76.0319 51.74 74.9092 59.2357 66.031C66.7315 57.1507 65.6103 43.8778 56.7315 36.3808Z" fill="#624525"/>
<path d="M56.6367 36.6024C47.8234 29.1628 34.6479 30.2772 27.2085 39.0891C19.7697 47.9027 20.8832 61.0771 29.6957 68.5167C38.5087 75.9561 51.6825 74.8417 59.1222 66.0301C66.5619 57.2165 65.4489 44.0432 56.6367 36.6024Z" fill="#634625"/>
<path d="M56.5418 36.825C47.7951 29.4415 34.7196 30.5476 27.3363 39.2928C19.9536 48.0401 21.0589 61.1144 29.8047 68.4977C38.5511 75.881 51.6255 74.7751 59.0087 66.0302C66.392 57.2832 65.2873 44.2094 56.5418 36.825Z" fill="#644726"/>
<path d="M56.4453 37.0465C47.7653 29.7193 34.7892 30.8169 27.4623 39.4955C20.1357 48.1761 21.2325 61.1508 29.9119 68.4779C38.5913 75.8048 51.5663 74.7074 58.8934 66.0289C66.2206 57.3489 65.1241 44.3748 56.4453 37.0465Z" fill="#654826"/>
<path d="M56.3517 37.2689C47.7384 29.9982 34.8617 31.0872 27.591 39.6991C20.3208 48.3128 21.409 61.1883 30.0221 68.4591C38.6348 75.7298 51.5104 74.6407 58.7811 66.0291C66.0516 57.4155 64.9639 44.5411 56.3517 37.2689Z" fill="#664826"/>
<path d="M56.2561 37.4915C47.7092 30.2769 34.9325 31.3577 27.7179 39.9029C20.5038 48.4502 21.5838 61.2257 30.1299 68.4406C38.6762 75.655 51.4518 74.5745 58.6664 66.0292C65.8811 57.4822 64.8017 44.7072 56.2561 37.4915Z" fill="#674927"/>
<path d="M56.1613 37.7141C47.681 30.5556 35.0037 31.6281 27.8455 40.1064C20.6878 48.5873 21.7595 61.2631 30.2389 68.4216C38.7187 75.5796 51.3945 74.5079 58.553 66.0293C65.7112 57.5487 64.6401 44.8734 56.1613 37.7141Z" fill="#684A27"/>
<path d="M56.0657 37.9355C47.6521 30.8334 35.0742 31.8974 27.9724 40.3093C20.8709 48.7233 21.934 61.2997 30.3471 68.4018C38.7602 75.5036 51.3366 74.4399 58.4384 66.0283C65.5405 57.6146 64.478 45.039 56.0657 37.9355Z" fill="#694A28"/>
<path d="M55.971 38.1582C47.624 31.1122 35.1459 32.1677 28.1002 40.5132C21.055 48.8605 22.1096 61.3375 30.4558 68.3835C38.8024 75.4292 51.2792 74.374 58.3252 66.0285C65.3709 57.6812 64.3168 45.205 55.971 38.1582Z" fill="#6A4B28"/>
<path d="M55.8764 38.3805C47.5963 31.391 35.2176 32.4382 28.228 40.7168C21.239 48.9974 22.2853 61.3747 30.5648 68.3645C38.8445 75.3541 51.2219 74.3072 58.2117 66.0286C65.201 57.748 64.1555 45.3715 55.8764 38.3805Z" fill="#6B4C28"/>
<path d="M55.7807 38.603C47.5671 31.6698 35.2878 32.7085 28.3549 40.9204C21.422 49.1346 22.4601 61.412 30.6729 68.3454C38.8862 75.2786 51.1636 74.2402 58.097 66.028C65.0302 57.8143 63.993 45.5373 55.7807 38.603Z" fill="#6C4D29"/>
<path d="M55.6851 38.8246C47.5381 31.9475 35.3588 32.9779 28.4817 41.1232C21.605 49.2708 22.6348 61.4487 30.7809 68.326C38.9276 75.2028 51.1055 74.173 57.9829 66.0274C64.8599 57.8801 63.831 45.7028 55.6851 38.8246Z" fill="#6D4D29"/>
<path d="M55.5904 39.0471C47.51 32.2262 35.4301 33.2483 28.6095 41.327C21.7891 49.4079 22.8104 61.4861 30.8898 68.3073C38.9699 75.1279 51.0481 74.1064 57.869 66.0275C64.6902 57.9468 63.6696 45.8692 55.5904 39.0471Z" fill="#6E4E29"/>
<path d="M55.4957 39.2698C47.482 32.505 35.5018 33.5186 28.7373 41.5308C21.9731 49.5448 22.9861 61.5236 30.9989 68.2884C39.0123 75.0529 50.9911 74.0396 57.7559 66.0274C64.5201 58.0137 63.5082 46.0355 55.4957 39.2698Z" fill="#6F4F2A"/>
<path d="M55.4009 39.4923C47.4539 32.7839 35.5731 33.7889 28.865 41.7345C22.1572 49.6818 23.1616 61.5611 31.1081 68.2695C39.0548 74.9777 50.9339 73.9729 57.6426 66.0273C64.3504 58.08 63.3468 46.2015 55.4009 39.4923Z" fill="#704F2A"/>
<path d="M55.3054 39.7127C47.425 33.0607 35.644 34.0572 28.9919 41.9364C22.3402 49.8174 23.3361 61.5967 31.2162 68.249C39.0963 74.901 50.8759 73.9048 57.528 66.0256C64.18 58.145 63.1846 46.3662 55.3054 39.7127Z" fill="#71502B"/>
<path d="M55.2107 39.9362C47.397 33.3403 35.7153 34.3288 29.1197 42.1408C22.5244 49.9551 23.5117 61.635 31.3249 68.2312C39.1386 74.8268 50.8182 73.8392 57.4144 66.0269C64.01 58.2126 63.0235 46.5332 55.2107 39.9362Z" fill="#72512B"/>
<path d="M55.115 40.1587C47.3677 33.6192 35.786 34.5989 29.2466 42.3448C22.7074 50.0921 23.6865 61.6727 31.4329 68.2124C39.18 74.7519 50.7599 73.7728 57.3 66.0269C63.8395 58.279 62.8612 46.6993 55.115 40.1587Z" fill="#73512B"/>
<path d="M55.0184 40.3804C47.3378 33.8968 35.8555 34.8685 29.3724 42.5475C22.8894 50.2284 23.8602 61.709 31.54 68.1926C39.2201 74.6757 50.701 73.7048 57.1843 66.0259C63.668 58.3446 62.698 46.8649 55.0184 40.3804Z" fill="#74522C"/>
<path d="M54.9238 40.602C47.3098 34.1748 35.9272 35.1376 29.5003 42.7502C23.0736 50.3648 24.0356 61.7456 31.649 68.1729C39.2628 74.6001 50.6439 73.6375 57.0711 66.025C63.4978 58.4107 62.5364 47.0304 54.9238 40.602Z" fill="#75532C"/>
<path d="M54.8289 40.8243C47.2816 34.4535 35.9984 35.4081 29.6279 42.954C23.2576 50.5017 24.2114 61.7831 31.7579 68.1542C39.3049 74.5248 50.5866 73.5707 56.9575 66.0248C63.3283 58.4772 62.3748 47.1966 54.8289 40.8243Z" fill="#76542C"/>
<path d="M54.7344 41.048C47.2534 34.7333 36.0706 35.6793 29.7558 43.1586C23.4414 50.6396 24.3872 61.8216 31.867 68.1366C39.3474 74.451 50.5294 73.5053 56.8444 66.026C63.1586 58.5447 62.2139 47.3636 54.7344 41.048Z" fill="#77542D"/>
<path d="M54.6405 41.2694C47.2264 35.011 36.1427 35.9488 29.8844 43.3614C23.6267 50.7758 24.5636 61.8583 31.9771 68.1166C39.3908 74.3747 50.4731 73.4377 56.7317 66.0249C62.9894 58.6105 62.0534 47.5288 54.6405 41.2694Z" fill="#78552D"/>
<path d="M54.5439 41.4909C47.1965 35.289 36.2125 36.218 30.0103 43.564C23.8087 50.9119 24.7374 61.8945 32.0839 68.097C39.431 74.2989 50.4138 73.3702 56.616 66.0242C62.8179 58.6763 61.8901 47.6946 54.5439 41.4909Z" fill="#79562E"/>
<path d="M54.4493 41.7135C47.1683 35.5677 36.2839 36.4884 30.1382 43.768C23.9926 51.0493 24.9131 61.9321 32.1929 68.0782C39.4736 74.224 50.3568 73.3036 56.5026 66.024C62.6484 58.743 61.7291 47.861 54.4493 41.7135Z" fill="#7A562E"/>
<path d="M54.3549 41.9361C47.1405 35.8464 36.3556 36.7588 30.266 43.9717C24.1769 51.1864 25.0885 61.9695 32.3019 68.0595C39.516 74.1489 50.2995 73.237 56.3891 66.0241C62.4785 58.8095 61.5678 48.0269 54.3549 41.9361Z" fill="#7B572E"/>
<path d="M54.259 42.1586C47.1113 36.1251 36.4258 37.0293 30.3928 44.1752C24.3599 51.3232 25.2632 62.007 32.41 68.0405C39.5571 74.0738 50.2412 73.1702 56.2747 66.0242C62.3077 58.8762 61.4052 48.1933 54.259 42.1586Z" fill="#7C582F"/>
<path d="M54.1643 42.3801C47.0833 36.403 36.4975 37.2986 30.5207 44.3782C24.5438 51.4592 25.4389 62.0435 32.519 68.021C39.5998 73.9978 50.1838 73.1028 56.1612 66.0235C62.1381 58.9419 61.2439 48.3587 54.1643 42.3801Z" fill="#7D592F"/>
<path d="M54.0696 42.6016C47.0552 36.6808 36.5691 37.5679 30.6484 44.5808C24.7279 51.5955 25.6145 62.0798 32.628 68.0011C39.642 73.9219 50.1264 73.0351 56.0477 66.0224C61.9682 59.0075 61.0828 48.5237 54.0696 42.6016Z" fill="#7E592F"/>
<path d="M53.972 42.8251C47.0243 36.9605 36.6376 37.8393 30.7733 44.7856C24.909 51.7336 25.7872 62.1185 32.7341 67.9834C39.6815 73.8477 50.0664 72.9695 55.9313 66.0235C61.7959 59.0752 60.9185 48.6912 53.972 42.8251Z" fill="#7F5A30"/>
<path d="M53.8785 43.0468C46.9972 37.2383 36.7105 38.1086 30.902 44.9885C25.0941 51.8698 25.9638 62.155 32.844 67.9638C39.7247 73.772 50.0102 72.9023 55.8187 66.0227C61.6272 59.1408 60.7584 48.8567 53.8785 43.0468Z" fill="#805B30"/>
<path d="M53.7836 43.2692C46.9692 37.5171 36.7819 38.3789 31.0298 45.1921C25.278 52.0068 26.1395 62.1926 32.953 67.945C39.7671 73.6968 49.9529 72.8356 55.7056 66.0224C61.4574 59.2077 60.5968 49.0228 53.7836 43.2692Z" fill="#815B31"/>
<path d="M53.6888 43.4908C46.9408 37.7949 36.8535 38.6483 31.1575 45.3949C25.4621 52.1429 26.315 62.229 33.0622 67.9253C39.8096 73.621 49.8957 72.7681 55.592 66.0215C61.2874 59.2735 60.4356 49.1882 53.6888 43.4908Z" fill="#825C31"/>
<path d="M53.5923 43.7144C46.9109 38.0745 36.9231 38.9198 31.2835 45.5994C25.6443 52.2807 26.4886 62.2674 33.1691 67.9076C39.8499 73.5468 49.8366 72.7025 55.4767 66.0229C61.116 59.3409 60.2725 49.3551 53.5923 43.7144Z" fill="#835D31"/>
<path d="M53.4976 43.9358C46.8832 38.3524 36.9948 39.189 31.4114 45.8026C25.8282 52.4173 26.6643 62.304 33.2781 67.8877C39.8925 73.4712 49.7795 72.6348 55.3633 66.0218C60.9461 59.4068 60.1112 49.5207 53.4976 43.9358Z" fill="#845E32"/>
<path d="M53.4029 44.1573C46.8549 38.6303 37.0662 39.4584 31.5391 46.005C26.0123 52.553 26.8399 62.3403 33.3871 67.8679C39.9345 73.3947 49.7221 72.5671 55.2494 66.0208C60.7762 59.4725 59.9495 49.6861 53.4029 44.1573Z" fill="#855E32"/>
<path d="M53.3073 44.3799C46.8259 38.909 37.1369 39.7288 31.666 46.2087C26.1953 52.6904 27.0146 62.378 33.4951 67.8492C39.9762 73.3198 49.6638 72.5008 55.1353 66.0209C60.6056 59.539 59.7872 49.852 53.3073 44.3799Z" fill="#865F32"/>
<path d="M53.2115 44.6023C46.7968 39.1878 37.2072 39.9991 31.7927 46.4127C26.3785 52.8276 27.1892 62.4155 33.6031 67.8306C40.0175 73.2451 49.6056 72.4341 55.0207 66.0211C60.435 59.6056 59.6251 50.0183 53.2115 44.6023Z" fill="#876033"/>
<path d="M53.1169 44.825C46.7688 39.4663 37.2789 40.2697 31.9205 46.6163C26.5624 52.9646 27.3649 62.4528 33.7124 67.8115C40.0598 73.1699 49.5486 72.3674 54.9073 66.0208C60.2654 59.6722 59.4635 50.1848 53.1169 44.825Z" fill="#886033"/>
<path d="M53.0221 45.0465C46.7404 39.7442 37.3503 40.539 32.0483 46.819C26.7466 53.1006 27.5405 62.4894 33.821 67.7919C40.1021 73.0939 49.4911 72.3 54.7937 66.0198C60.0951 59.7381 59.3021 50.3499 53.0221 45.0465Z" fill="#896134"/>
<path d="M52.9265 45.2689C46.7118 40.0231 37.421 40.8093 32.1751 47.0226C26.9295 53.2376 27.7152 62.5269 33.9291 67.7734C40.1435 73.019 49.4329 72.2333 54.6793 66.02C59.9246 59.8047 59.1401 50.5162 52.9265 45.2689Z" fill="#8A6234"/>
<path d="M52.8319 45.4915C46.6835 40.3017 37.4925 41.0797 32.303 47.2266C27.1135 53.375 27.8909 62.5643 34.0381 67.7546C40.1862 72.9441 49.3758 72.167 54.5661 66.0201C59.7551 59.8714 58.9785 50.6827 52.8319 45.4915Z" fill="#8B6234"/>
<path d="M52.7371 45.7149C46.6554 40.5815 37.5638 41.351 32.4307 47.4312C27.2976 53.5129 28.0665 62.6029 34.147 67.7368C40.2282 72.8699 49.3184 72.101 54.4523 66.021C59.5854 59.939 58.8174 50.8497 52.7371 45.7149Z" fill="#8C6335"/>
<path d="M52.6425 45.9366C46.6275 40.8594 37.6356 41.6203 32.5586 47.6339C27.4817 53.6489 28.242 62.6394 34.2562 67.7169C40.2706 72.7939 49.2614 72.0336 54.3389 66.02C59.4156 60.0046 58.6561 51.015 52.6425 45.9366Z" fill="#8D6435"/>
<path d="M52.5457 46.1591C46.5974 41.1379 37.7051 41.8908 32.6843 47.8378C27.6638 53.7862 28.4158 62.677 34.363 67.6984C40.3111 72.7189 49.2019 71.9671 54.2236 66.0202C59.2439 60.0713 58.493 51.1813 52.5457 46.1591Z" fill="#8E6535"/>
<path d="M52.452 46.3796C46.5703 41.4148 37.7778 42.1592 32.8131 48.0395C27.849 53.9212 28.5922 62.7123 34.473 67.6776C40.3542 72.6417 49.1456 71.8985 54.1108 66.0182C59.075 60.1362 58.3326 51.3457 52.452 46.3796Z" fill="#8F6536"/>
<path d="M52.3577 46.6022C46.5423 41.6936 37.8495 42.4295 32.9409 48.2431C28.0326 54.0584 28.7682 62.7498 34.5824 67.6587C40.3971 72.567 49.0888 71.832 53.9977 66.0184C58.9054 60.2028 58.1713 51.512 52.3577 46.6022Z" fill="#906636"/>
<path d="M52.263 46.8237C46.5144 41.9715 37.921 42.6988 33.0688 48.4458C28.2169 54.1944 28.9436 62.7861 34.6911 67.6389C40.4392 72.4908 49.0312 71.7644 53.8842 66.0174C58.7359 60.2682 58.01 51.677 52.263 46.8237Z" fill="#916737"/>
<path d="M52.1665 47.0463C46.4845 42.2502 37.9908 42.9692 33.1948 48.6498C28.399 54.3315 29.1171 62.8238 34.7983 67.6201C40.4797 72.4159 48.9723 71.6978 53.7689 66.0175C58.5641 60.3349 57.8469 51.8438 52.1665 47.0463Z" fill="#926737"/>
<path d="M52.0715 47.2697C46.4561 42.53 38.0622 43.2405 33.3225 48.8544C28.5831 54.4695 29.2927 62.8623 34.9072 67.6026C40.522 72.3419 48.9148 71.6323 53.6554 66.0184C58.3945 60.4028 57.6854 52.0108 52.0715 47.2697Z" fill="#936837"/>
<path d="M51.9758 47.4924C46.4271 42.8088 38.1325 43.5107 33.4492 49.058C28.7663 54.6067 29.4673 62.8998 35.0152 67.5837C40.5633 72.2669 48.8567 71.5659 53.5405 66.0183C58.2235 60.4693 57.523 52.1771 51.9758 47.4924Z" fill="#946938"/>
<path d="M51.8822 47.7138C46.4002 43.0864 38.2053 43.7803 33.5782 49.261C28.951 54.743 29.6441 62.9364 35.1253 67.5639C40.607 72.1907 48.8005 71.4982 53.4285 66.0176C58.0551 60.5353 57.3628 52.3427 51.8822 47.7138Z" fill="#956A38"/>
<path d="M51.7855 47.9363C46.3702 43.3653 38.275 44.0507 33.7037 49.4646C29.1332 54.88 29.8178 62.9737 35.2323 67.5453C40.6471 72.1158 48.7411 71.4315 53.3127 66.0178C57.8832 60.6019 57.1992 52.5087 51.7855 47.9363Z" fill="#966A39"/>
<path d="M51.6907 48.1588C46.342 43.6439 38.3463 44.3211 33.8317 49.6684C29.3173 55.0171 29.9933 63.0114 35.3412 67.5266C40.6896 72.0412 48.6839 71.3652 53.1994 66.0179C57.7132 60.6683 57.038 52.6749 51.6907 48.1588Z" fill="#976B39"/>
<path d="M51.5964 48.3814C46.314 43.9229 38.418 44.5912 33.9595 49.8719C29.5013 55.1542 30.169 63.0485 35.4502 67.5076C40.732 71.9655 48.6269 71.2984 53.086 66.0177C57.5436 60.7351 56.8767 52.8411 51.5964 48.3814Z" fill="#986C39"/>
<path d="M51.5006 48.603C46.2849 44.2006 38.4883 44.8606 34.0862 50.0749C29.6844 55.2903 30.3436 63.0852 35.5582 67.4879C40.7733 71.89 48.5685 71.2308 52.9711 66.0168C57.3729 60.8006 56.7146 53.0065 51.5006 48.603Z" fill="#996C3A"/>
<path d="M51.405 48.8254C46.256 44.4795 38.5591 45.1309 34.2131 50.2786C29.8674 55.4273 30.5183 63.1228 35.6662 67.4693C40.8147 71.815 48.5102 71.1644 52.857 66.0168C57.2024 60.8675 56.5526 53.1728 51.405 48.8254Z" fill="#9A6D3A"/>
<path d="M51.3101 49.0479C46.2277 44.758 38.6305 45.4016 34.3409 50.4822C30.0514 55.5646 30.694 63.1601 35.7753 67.4505C40.8571 71.7398 48.4531 71.0977 52.7435 66.0168C57.0325 60.9341 56.3907 53.3389 51.3101 49.0479Z" fill="#9B6E3A"/>
<path d="M51.2154 49.2706C46.2 45.0368 38.7022 45.6718 34.4688 50.6861C30.2356 55.7018 30.8694 63.1979 35.8843 67.4319C40.8994 71.6651 48.3958 71.0312 52.6301 66.0169C56.8627 61.0009 56.2297 53.5054 51.2154 49.2706Z" fill="#9C6F3B"/>
<path d="M51.1198 49.492C46.1707 45.3147 38.773 45.9411 34.5956 50.8888C30.4186 55.8375 31.0441 63.2342 35.9923 67.4121C40.9411 71.5888 48.3377 70.9635 52.5157 66.0159C56.6921 61.0666 56.0674 53.6708 51.1198 49.492Z" fill="#9D6F3B"/>
<path d="M51.0249 49.7146C46.1426 45.5934 38.8442 46.2116 34.7232 51.0925C30.6026 55.9749 31.2199 63.2719 36.1012 67.3934C40.9833 71.514 48.2802 70.8972 52.402 66.0163C56.5224 61.133 55.9059 53.837 51.0249 49.7146Z" fill="#9E703C"/>
<path d="M50.9303 49.937C46.1146 45.8722 38.9159 46.4819 34.8511 51.2962C30.7866 56.1119 31.3956 63.3091 36.2102 67.3745C41.0254 71.4388 48.2232 70.8303 52.2886 66.0163C56.3528 61.2 55.7449 54.0033 50.9303 49.937Z" fill="#9F713C"/>
<path d="M50.8356 50.1596C46.0866 46.1509 38.9873 46.7523 34.9789 51.4999C30.9705 56.249 31.5713 63.3465 36.3192 67.3558C41.068 71.3639 48.1658 70.764 52.1754 66.0161C56.1827 61.2664 55.5833 54.1694 50.8356 50.1596Z" fill="#A0713C"/>
<path d="M50.7402 50.3802C46.0575 46.4279 39.0579 47.0204 35.1056 51.7017C31.1536 56.3841 31.7459 63.3822 36.4274 67.3351C41.1096 71.2868 48.1077 70.6951 52.0608 66.0142C56.0123 61.3312 55.4212 54.3339 50.7402 50.3802Z" fill="#A1723D"/>
<path d="M50.6447 50.6037C46.0286 46.7075 39.1288 47.292 35.2326 51.9064C31.3367 56.5221 31.9204 63.4205 36.5353 67.3173C41.1508 71.2126 48.0495 70.6297 51.9465 66.0151C55.8418 61.3988 55.259 54.501 50.6447 50.6037Z" fill="#A2733D"/>
<path d="M50.5507 50.8252C46.0013 46.9855 39.2012 47.5612 35.3614 52.1091C31.5217 56.6582 32.0971 63.4569 36.6454 67.2975C41.1944 71.137 47.9934 70.5622 51.8341 66.0142C55.6727 61.4646 55.0984 54.6664 50.5507 50.8252Z" fill="#A3733D"/>
<path d="M50.453 51.0478C45.9703 47.2641 39.2696 47.8316 35.4862 52.3129C31.7029 56.7953 32.2698 63.4946 36.7513 67.2788C41.2332 71.0619 47.9328 70.4956 51.7173 66.0143C55.5001 61.5313 54.9343 54.8329 50.453 51.0478Z" fill="#A4743E"/>
<path d="M50.3584 51.2694C45.9423 47.5418 39.3413 48.101 35.6141 52.5157C31.8869 56.9315 32.4455 63.5313 36.8601 67.2591C41.2759 70.9861 47.8758 70.428 51.6039 66.0134C55.3302 61.5971 54.773 54.998 50.3584 51.2694Z" fill="#A5753E"/>
<path d="M50.2637 51.4918C45.9143 47.8207 39.413 48.3714 35.7419 52.7193C32.0711 57.0687 32.6209 63.5686 36.9694 67.2403C41.3185 70.9108 47.8187 70.3613 51.4906 66.0134C55.1603 61.6637 54.6114 55.1644 50.2637 51.4918Z" fill="#A6763F"/>
<path d="M50.17 51.7142C45.8873 48.0995 39.4854 48.6416 35.8707 52.9232C32.256 57.206 32.7975 63.6061 37.0794 67.2214C41.3616 70.8359 47.7623 70.2949 51.3782 66.0136C54.9918 61.7303 54.4514 55.3307 50.17 51.7142Z" fill="#A7763F"/>
<path d="M50.0737 51.937C45.8574 48.3781 39.5552 48.9122 35.9966 53.1269C32.438 57.3429 32.9713 63.6434 37.1865 67.2029C41.4023 70.7609 47.7033 70.2285 51.2628 66.0135C54.8205 61.7966 54.2881 55.4967 50.0737 51.937Z" fill="#A8773F"/>
<path d="M49.9789 52.1583C45.8295 48.6561 39.6267 49.1814 36.1242 53.3294C32.622 57.4788 33.147 63.6799 37.2953 67.1829C41.4442 70.6845 47.6461 70.1607 51.1491 66.0127C54.6505 61.8624 54.1269 55.6619 49.9789 52.1583Z" fill="#A97840"/>
<path d="M49.8839 52.3809C45.8012 48.9348 39.6981 49.4518 36.252 53.5332C32.8063 57.6159 33.3224 63.7173 37.4043 67.1642C41.4865 70.6097 47.5884 70.0941 51.0357 66.0128C54.4806 61.9289 53.9655 55.8284 49.8839 52.3809Z" fill="#AA7840"/>
<path d="M49.7893 52.6034C45.7729 49.2135 39.7698 49.7223 36.3799 53.7369C32.9902 57.753 33.4981 63.755 37.5134 67.1455C41.5292 70.5349 47.5314 70.0275 50.9222 66.0126C54.311 61.9959 53.804 55.9945 49.7893 52.6034Z" fill="#AB7940"/>
<path d="M49.6939 52.8261C45.7442 49.4923 39.8406 49.9925 36.5067 53.9408C33.1732 57.8902 33.6729 63.7925 37.6214 67.1266C41.5706 70.4598 47.4734 69.9607 50.8078 66.0127C54.1402 62.0627 53.642 56.1611 49.6939 52.8261Z" fill="#AC7A41"/>
<path d="M49.5979 53.0475C45.7149 49.77 39.9106 50.262 36.6335 54.1436C33.3563 58.0264 33.8475 63.8289 37.7294 67.1069C41.6119 70.3838 47.4152 69.8932 50.6932 66.0116C53.9693 62.1283 53.4793 56.3263 49.5979 53.0475Z" fill="#AD7B41"/>
<path d="M49.5036 53.2689C45.6872 50.0479 39.9826 50.5313 36.7613 54.3463C33.5403 58.1624 34.0232 63.8655 37.8384 67.0874C41.6543 70.3079 47.3579 69.8259 50.5798 66.0109C53.7997 62.1939 53.318 56.4914 49.5036 53.2689Z" fill="#AE7B42"/>
<path d="M49.4088 53.4925C45.6591 50.3276 40.054 50.8027 36.8891 54.551C33.7244 58.3005 34.1987 63.9039 37.9473 67.0694C41.6965 70.2337 47.3005 69.76 50.4662 66.0119C53.6297 62.2613 53.1566 56.6588 49.4088 53.4925Z" fill="#AF7C42"/>
<path d="M49.313 53.7142C45.6296 50.6054 40.1245 51.072 37.016 54.7537C33.9075 58.4368 34.3733 63.9404 38.0555 67.0498C41.7383 70.1577 47.2426 69.6925 50.3519 66.0109C53.459 62.3275 52.9944 56.8241 49.313 53.7142Z" fill="#B07D42"/>
<path d="M49.2184 53.9366C45.6017 50.8842 40.196 51.3423 37.1436 54.9573C34.0915 58.5735 34.549 63.9777 38.1643 67.0307C41.7805 70.0825 47.1853 69.6259 50.2385 66.0106C53.2895 62.3939 52.8331 56.9901 49.2184 53.9366Z" fill="#B17D43"/>
<path d="M49.1238 54.1582C45.5737 51.1619 40.2677 51.6117 37.2715 55.1604C34.2755 58.7101 34.7247 64.0147 38.2734 67.0115C41.8228 70.0069 47.1277 69.5585 50.1251 66.0102C53.1196 62.4596 52.6718 57.1556 49.1238 54.1582Z" fill="#B27E43"/>
<path d="M49.0291 54.3806C45.5457 51.4408 40.3395 51.882 37.3993 55.364C34.4595 58.8471 34.9004 64.052 38.3824 66.9924C41.8655 69.9317 47.0707 69.4919 50.0117 66.0102C52.9501 62.5265 52.5105 57.3219 49.0291 54.3806Z" fill="#B37F43"/>
<path d="M48.9335 54.6032C45.5168 51.7195 40.4099 52.1525 37.5262 55.5678C34.6427 58.9842 35.0748 64.0897 38.4904 66.974C41.9066 69.8569 47.0123 69.4256 49.8972 66.0103C52.7792 62.5927 52.3482 57.4884 48.9335 54.6032Z" fill="#B48044"/>
<path d="M48.8379 54.8247C45.4875 51.9973 40.4804 52.4218 37.653 55.7704C34.8257 59.1202 35.2496 64.1263 38.5985 66.9542C41.948 69.7809 46.954 69.3579 49.7828 66.0095C52.6087 62.6586 52.1859 57.6537 48.8379 54.8247Z" fill="#B58044"/>
<path d="M48.7431 55.0472C45.4597 52.276 40.552 52.6922 37.7807 55.9742C35.0098 59.2573 35.4251 64.1634 38.7074 66.9354C41.9903 69.7061 46.8969 69.2913 49.6692 66.0093C52.4387 62.7253 52.0245 57.8196 48.7431 55.0472Z" fill="#B68145"/>
<path d="M48.6462 55.2697C45.4295 52.5549 40.6214 52.9625 37.9066 56.1779C35.1918 59.3946 35.5989 64.2009 38.8145 66.9166C42.0307 69.6308 46.8379 69.2249 49.5538 66.0093C52.2672 62.792 51.8616 57.9859 48.6462 55.2697Z" fill="#B78245"/>
<path d="M48.5516 55.4922C45.4015 52.8335 40.6932 53.2329 38.0345 56.3819C35.3758 59.532 35.7746 64.2386 38.9235 66.8979C42.0734 69.5563 46.7805 69.1583 49.4401 66.0096C52.0974 62.8587 51.6997 58.1526 48.5516 55.4922Z" fill="#B88245"/>
<path d="M48.4571 55.7138C45.3737 53.1115 40.7648 53.5021 38.1622 56.5844C35.5599 59.6678 35.9502 64.275 39.0325 66.8782C42.1156 69.4799 46.7231 69.0908 49.3268 66.0085C51.9277 62.9242 51.5388 58.3178 48.4571 55.7138Z" fill="#B98346"/>
<path d="M48.3622 55.9363C45.3454 53.3901 40.8362 53.7727 38.29 56.7881C35.7439 59.8048 36.1259 64.3123 39.1415 66.8594C42.1577 69.405 46.6661 69.0241 49.2134 66.0087C51.7578 62.9911 51.3775 58.4842 48.3622 55.9363Z" fill="#BA8446"/>
<path d="M48.2665 56.159C45.3164 53.6689 40.9069 54.0429 38.4169 56.9919C35.9271 59.9417 36.3003 64.3501 39.2495 66.8404C42.1994 69.3296 46.608 68.9573 49.0989 66.0086C51.587 63.0577 51.2149 58.6507 48.2665 56.159Z" fill="#BB8446"/>
<path d="M48.1719 56.3794C45.2882 53.9457 40.9784 54.3115 38.5447 57.1935C36.1111 60.077 36.476 64.3853 39.3583 66.8198C42.2415 69.2529 46.5507 68.8891 48.9855 66.0068C51.4174 63.1225 51.0539 58.8147 48.1719 56.3794Z" fill="#BC8547"/>
<path d="M48.0771 56.604C45.26 54.2264 41.05 54.5837 38.6724 57.3993C36.2952 60.2161 36.6516 64.4248 39.4675 66.8029C42.284 69.1796 46.4932 68.824 48.8719 66.0084C51.2477 63.191 50.8925 58.9829 48.0771 56.604Z" fill="#BD8647"/>
<path d="M47.9828 56.8264C45.2321 54.5053 41.1214 54.854 38.8003 57.603C36.4791 60.3531 36.8273 64.4624 39.5765 66.7843C42.3264 69.1049 46.4362 68.7576 48.7585 66.0086C51.0782 63.2576 50.7312 59.149 47.9828 56.8264Z" fill="#BE8748"/>
<path d="M47.887 57.0489C45.2033 54.7839 41.192 55.1246 38.927 57.8069C36.6623 60.4904 37.0019 64.4999 39.6845 66.7655C42.368 69.0299 46.3781 68.6912 48.6439 66.0086C50.9072 63.3243 50.5688 59.3153 47.887 57.0489Z" fill="#BF8748"/>
<path d="M47.7911 57.2685C45.1737 55.0599 41.2625 55.3918 39.0539 58.0075C36.8453 60.6243 37.1766 64.5344 39.7925 66.7436C42.4094 68.9516 46.3198 68.6214 48.5295 66.0058C50.7364 63.3878 50.4065 59.4788 47.7911 57.2685Z" fill="#C08848"/>
<path d="M47.6968 57.4911C45.1463 55.3386 41.3342 55.6622 39.1817 58.2112C37.0292 60.7614 37.3523 64.5718 39.9016 66.7251C42.4515 68.877 46.2627 68.5548 48.4161 66.0061C50.5671 63.4548 50.2452 59.645 47.6968 57.4911Z" fill="#C18949"/>
<path d="M47.602 57.7136C45.1179 55.6173 41.4055 55.9326 39.3094 58.415C37.2134 60.8985 37.5279 64.6092 40.0105 66.7061C42.494 68.8019 46.2053 68.4883 48.3025 66.0059C50.3974 63.5216 50.0841 59.8114 47.602 57.7136Z" fill="#C28949"/>
<path d="M47.5064 57.9361C45.089 55.8961 41.4763 56.2029 39.4363 58.6186C37.3963 61.0355 37.7026 64.6468 40.1186 66.6876C42.5354 68.727 46.1473 68.4219 48.1881 66.0059C50.2269 63.5882 49.9218 59.9778 47.5064 57.9361Z" fill="#C38A49"/>
<path d="M47.4116 58.1578C45.0606 56.1739 41.5479 56.4722 39.564 58.8215C37.5805 61.1717 37.8782 64.6836 40.2275 66.6677C42.5777 68.6507 46.0898 68.3541 48.0745 66.0051C50.0566 63.6535 49.7604 60.1427 47.4116 58.1578Z" fill="#C48B4A"/>
<path d="M47.3171 58.3812C45.033 56.4538 41.6197 56.7435 39.692 59.0261C37.7645 61.3099 38.0537 64.7218 40.3366 66.6501C42.6201 68.577 46.0326 68.289 47.9612 66.006C49.8869 63.7211 49.5992 60.3101 47.3171 58.3812Z" fill="#C58C4A"/>
<path d="M47.2204 58.6036C45.0029 56.7326 41.689 57.0138 39.8177 59.23C37.9467 61.4469 38.2273 64.7594 40.4436 66.6313C42.6604 68.5017 45.9735 68.2223 47.8456 66.0063C49.7152 63.788 49.4358 60.4764 47.2204 58.6036Z" fill="#C68C4B"/>
<path d="M47.1267 58.8263C44.9759 57.0111 41.7617 57.2843 39.9465 59.4337C38.1316 61.5842 38.404 64.7969 40.5536 66.6127C42.7038 68.427 45.9171 68.1558 47.7335 66.0062C49.5467 63.8549 49.2758 60.6427 47.1267 58.8263Z" fill="#C78D4B"/>
<path d="M47.0311 59.0487C44.9467 57.29 41.8322 57.5546 40.0734 59.6376C38.3146 61.7214 38.5787 64.8345 40.6617 66.5938C42.7452 68.3517 45.8591 68.0891 47.6188 66.0061C49.3761 63.9215 49.1132 60.809 47.0311 59.0487Z" fill="#C88E4B"/>
<path d="M46.9363 59.2704C44.9186 57.5677 41.9035 57.8241 40.2011 59.8401C38.4987 61.8573 38.7542 64.8706 40.7708 66.5739C42.7877 68.2757 45.8019 68.0213 47.5055 66.005C49.2064 63.987 48.952 60.9745 46.9363 59.2704Z" fill="#C98E4C"/>
<path d="M46.8396 59.4928C44.8885 57.8465 41.9732 58.0944 40.3269 60.044C38.6809 61.9945 38.9279 64.9085 40.8775 66.5553C42.8281 68.2007 45.7426 67.9549 47.39 66.0052C49.0345 64.0536 48.7887 61.1405 46.8396 59.4928Z" fill="#CA8F4C"/>
<path d="M46.7449 59.7154C44.8605 58.1252 42.0449 58.3648 40.4547 60.2475C38.8649 62.1317 39.1036 64.9459 40.9866 66.5366C42.8704 68.1259 45.6852 67.8883 47.2765 66.0053C48.8647 64.1206 48.6271 61.3069 46.7449 59.7154Z" fill="#CB904C"/>
<path d="M46.6503 59.9378C44.8325 58.4041 42.1163 58.6351 40.5826 60.4514C39.0488 62.2686 39.2793 64.9831 41.0956 66.5177C42.9128 68.0509 45.6282 67.8216 47.1631 66.0055C48.6951 64.1869 48.4661 61.4733 46.6503 59.9378Z" fill="#CC914D"/>
<path d="M46.5554 60.1593C44.8043 58.6819 42.1878 58.9044 40.7104 60.6541C39.2328 62.4046 39.455 65.0197 41.2044 66.4979C42.9549 67.9747 45.5706 67.7539 47.0494 66.0042C48.525 64.2526 48.3045 61.638 46.5554 60.1593Z" fill="#CD914D"/>
<path d="M46.4599 60.3819C44.7752 58.9606 42.2584 59.1749 40.8372 60.8576C39.4159 62.5418 39.6296 65.0572 41.3126 66.4789C42.9965 67.8996 45.5127 67.6871 46.9351 66.0041C48.3546 64.3191 48.1424 61.8045 46.4599 60.3819Z" fill="#CE924E"/>
<path d="M46.3653 60.6034C44.7472 59.2383 42.3301 59.4443 40.965 61.0607C39.5999 62.6781 39.8053 65.0938 41.4216 66.4595C43.0389 67.8237 45.4554 67.6201 46.8216 66.0037C48.1847 64.3848 47.9811 61.9697 46.3653 60.6034Z" fill="#CF934E"/>
<path d="M46.2706 60.825C44.7192 59.516 42.4018 59.7137 41.0928 61.2634C39.7841 62.814 39.9807 65.1303 41.5307 66.4398C43.0815 67.7479 45.3983 67.5525 46.7082 66.0025C48.0152 64.4509 47.82 62.1354 46.2706 60.825Z" fill="#D0934E"/>
<path d="M46.1761 61.0476C44.6914 59.795 42.4731 59.9839 41.2205 61.4672C39.9682 62.9514 40.1563 65.1679 41.6396 66.4211C43.1238 67.6731 45.3409 67.4859 46.5946 66.0029C47.8455 64.5173 47.6586 62.3016 46.1761 61.0476Z" fill="#D1944F"/>
<path d="M46.0802 61.2702C44.6621 60.0737 42.5439 60.2543 41.3474 61.6707C40.1512 63.0882 40.331 65.2051 41.7476 66.4021C43.1652 67.5977 45.2826 67.4191 46.4802 66.0027C47.6749 64.5843 47.4963 62.468 46.0802 61.2702Z" fill="#D2954F"/>
<path d="M45.9853 61.4926C44.6339 60.3525 42.6153 60.5246 41.4752 61.8746C40.3352 63.2252 40.5067 65.2426 41.8567 66.3835C43.2075 67.523 45.2256 67.3526 46.3667 66.0029C47.5048 64.6509 47.3347 62.6343 45.9853 61.4926Z" fill="#D3954F"/>
<path d="M45.89 61.7141C44.6052 60.6301 42.6857 60.7942 41.6021 62.0773C40.5182 63.3615 40.6814 65.2792 41.9647 66.3637C43.2487 67.4468 45.1672 67.285 46.2523 66.0017C47.3343 64.7166 47.1725 62.7997 45.89 61.7141Z" fill="#D49650"/>
<path d="M45.7949 61.9366C44.5768 60.9091 42.7571 61.0643 41.7298 62.281C40.7023 63.4986 40.857 65.3166 42.0737 66.345C43.2909 67.3719 45.1101 67.2187 46.1388 66.002C47.1643 64.7828 47.011 62.9656 45.7949 61.9366Z" fill="#D59750"/>
<path d="M45.6996 62.1592C44.5481 61.1878 42.8281 61.3348 41.8567 62.4848C40.8853 63.6357 41.0317 65.3543 42.1817 66.3265C43.3326 67.2971 45.0518 67.1521 46.0243 66.0021C46.9938 64.8495 46.849 63.132 45.6996 62.1592Z" fill="#D69851"/>
<path d="M45.6046 62.3816C44.5198 61.4666 42.8995 61.6051 41.9845 62.6884C41.0695 63.7727 41.2071 65.3916 42.2907 66.3074C43.375 67.2219 44.9944 67.0854 45.9109 66.0021C46.8239 64.9164 46.6877 63.2981 45.6046 62.3816Z" fill="#D79851"/>
<path d="M45.5093 62.6032C44.4909 61.7443 42.9703 61.8745 42.1114 62.8912C41.2525 63.9091 41.3818 65.428 42.3985 66.2877C43.4164 67.1458 44.9362 67.0179 45.7965 66.0009C46.6536 64.9822 46.5255 63.4635 45.5093 62.6032Z" fill="#D89951"/>
<path d="M45.4154 62.8257C44.464 62.0232 43.0424 62.1448 42.24 63.0949C41.4375 64.0461 41.5586 65.4656 42.5086 66.2692C43.4595 67.0708 44.8801 66.9514 45.684 66.0014C46.4842 65.0485 46.3649 63.6299 45.4154 62.8257Z" fill="#D99A52"/>
<path d="M45.3189 63.0483C44.4341 62.302 43.1123 62.4151 42.366 63.2987C41.6196 64.183 41.7321 65.5031 42.6158 66.2503C43.5003 66.9958 44.821 66.8847 45.5687 66.001C46.3128 65.1154 46.2017 63.7964 45.3189 63.0483Z" fill="#DA9A52"/>
<path d="M45.2243 63.2697C44.4058 62.5798 43.184 62.6846 42.4938 63.5013C41.8036 64.3192 41.9078 65.5396 42.7248 66.2304C43.5427 66.9197 44.7639 66.8169 45.4553 65.9999C46.1433 65.1809 46.0404 63.9614 45.2243 63.2697Z" fill="#DB9B52"/>
<path d="M45.1295 63.4933C44.3777 62.8595 43.2553 62.9558 42.6215 63.7061C41.9877 64.4573 42.0834 65.578 42.8337 66.2127C43.5849 66.8457 44.7079 66.7528 45.3417 66.0011C45.975 65.2501 45.879 64.1289 45.1295 63.4933Z" fill="#DC9C53"/>
<path d="M45.0329 63.714C44.3478 63.1362 43.3251 63.2243 42.7474 63.908C42.1697 64.5925 42.2571 65.6138 42.9408 66.192C43.6254 66.7689 44.6489 66.6843 45.2263 65.9995C45.8035 65.3149 45.716 64.2931 45.0329 63.714Z" fill="#DD9D53"/>
<path d="M44.9381 63.9375C44.3197 63.4159 43.3964 63.4957 42.8751 64.1127C42.3538 64.7306 42.4327 65.6519 43.0497 66.1743C43.6679 66.6948 44.5915 66.619 45.1128 66.0002C45.6332 65.3824 45.5543 64.4602 44.9381 63.9375Z" fill="#DE9D54"/>
<path d="M44.9993 65.9995C45.4622 65.4469 45.3933 64.6256 44.8435 64.159C44.2914 63.6938 43.4682 63.765 43.003 64.3154C42.5378 64.8666 42.6084 65.6884 43.1588 66.1545C43.7103 66.6191 44.533 66.5502 44.9993 65.9995Z" fill="#DF9E54"/>
<path d="M42.498 1.84766C20.0473 1.84766 1.84473 20.0474 1.84473 42.4995C1.84473 64.9507 20.0473 83.1536 42.498 83.1536C64.9508 83.1536 83.152 64.9509 83.152 42.4995C83.152 20.0474 64.9508 1.84766 42.498 1.84766ZM63.8478 70.2772V59.8652C73.2998 48.2516 71.7456 31.1616 60.2559 21.4632C48.6386 11.6557 31.2712 13.1251 21.4646 24.7407C12.7826 35.0251 12.9416 49.8098 21.1495 59.8726V70.2769C12.8273 63.871 7.4578 53.8145 7.4578 42.4989C7.4578 23.1448 23.1465 7.45817 42.4982 7.45817C61.8509 7.45817 77.541 23.1448 77.541 42.4989C77.5407 53.8148 72.1712 63.8713 63.8478 70.2772Z" fill="url(#paint0_linear_12723_2807)"/>
<path d="M44.0995 0.0316841C20.6458 -0.851983 0.914884 17.4446 0.0306476 40.8986C-0.852165 64.355 17.4456 84.0837 40.8984 84.9682C64.3535 85.8525 84.083 67.5547 84.9681 44.0997C85.8515 20.6454 67.5523 0.915636 44.0995 0.0316841ZM41.1195 79.1068C20.9028 78.345 5.13153 61.3388 5.89356 41.1188C6.6553 20.9013 23.6615 5.13114 43.8776 5.89231C64.0951 6.65434 79.8683 23.6608 79.1057 43.8783C78.344 64.0961 61.3378 79.8679 41.1195 79.1068Z" fill="url(#paint1_linear_12723_2807)"/>
<path d="M73.061 15.5839C58.1942 -1.29526 32.4605 -2.927 15.5833 11.9361C-1.2955 26.8018 -2.92923 52.5349 11.9364 69.4149C26.8018 86.2935 52.5336 87.9249 69.4135 73.0595C86.2912 58.197 87.9264 32.4636 73.061 15.5839ZM66.6888 69.965C65.3162 71.1734 63.8757 72.2573 62.3861 73.2239V59.984C62.504 59.8504 62.6248 59.7222 62.7399 59.5857C72.1762 48.406 70.7644 31.693 59.5855 22.2567C48.4058 12.8198 31.6942 14.233 22.2587 25.4102C13.6778 35.5749 14.0681 50.3104 22.6102 59.996V73.2216C19.861 71.4403 17.3031 69.2676 15.0315 66.689C1.67228 51.5196 3.13965 28.3908 18.309 15.0315C33.4775 1.67422 56.6055 3.14045 69.9648 18.3098C83.324 33.4791 81.8558 56.6071 66.6888 69.965Z" fill="url(#paint2_linear_12723_2807)"/>
<path d="M13.6575 36.4744C13.4715 36.2816 13.2251 36.1249 12.9231 36.0018L12.4172 37.0724C12.671 37.1681 12.8561 37.2883 12.9758 37.4336C13.0943 37.5806 13.1353 37.774 13.0989 38.0196C13.0618 38.272 12.9476 38.4543 12.7562 38.5685C12.5664 38.6827 12.2414 38.7058 11.783 38.6369C11.4121 38.5819 11.1495 38.4839 10.9937 38.3409C10.7837 38.1517 10.7 37.9127 10.7438 37.6227C10.7624 37.4951 10.8054 37.3832 10.8743 37.2875C10.9418 37.1917 11.0301 37.1154 11.1392 37.059C11.203 37.0234 11.3025 36.9957 11.4338 36.9752L11.3515 35.809C10.8923 35.889 10.5353 36.0628 10.2804 36.3291C10.0257 36.5969 9.85903 36.9909 9.78183 37.5116C9.68241 38.1777 9.79066 38.7201 10.1037 39.1391C10.4185 39.5576 10.9162 39.8188 11.6007 39.9202C12.1141 39.9966 12.5516 39.955 12.9108 39.7977C13.2706 39.6391 13.537 39.4277 13.7105 39.1619C13.8834 38.8955 14.0027 38.538 14.0694 38.0877C14.1258 37.7176 14.117 37.4037 14.0458 37.1479C13.9728 36.8929 13.8438 36.6687 13.6575 36.4744ZM14.6745 31.573C14.489 31.4328 14.2782 31.3246 14.0441 31.2493L11.6694 30.4876L11.2754 31.7154L13.7051 32.4957C13.9267 32.5654 14.0768 32.6811 14.1597 32.8398C14.2406 32.9993 14.2472 33.1848 14.1797 33.397C14.1107 33.6101 13.9965 33.7576 13.8347 33.8391C13.6743 33.9209 13.4854 33.926 13.2678 33.857L10.839 33.0765L10.4436 34.3057L12.8168 35.0669C13.0134 35.1293 13.2501 35.1632 13.5276 35.1686C13.6996 35.1723 13.8808 35.133 14.0705 35.0544C14.2606 34.9735 14.4192 34.8698 14.5497 34.7413C14.6805 34.6137 14.7944 34.4393 14.8955 34.2191C14.9964 33.9989 15.0781 33.791 15.1402 33.5981C15.2479 33.262 15.2952 32.9608 15.2835 32.6931C15.2753 32.5011 15.2183 32.3008 15.112 32.0937C15.0055 31.8875 14.8594 31.7131 14.6745 31.573ZM16.4076 27.17C16.2045 27.0663 15.9951 27.0224 15.7801 27.0387C15.565 27.0543 15.3462 27.1432 15.1243 27.305C14.9032 27.4668 14.6109 27.7725 14.246 28.2203C14.1005 28.4029 13.9894 28.5083 13.9122 28.538C13.8364 28.5707 13.7689 28.5707 13.7102 28.5408C13.6279 28.4992 13.5766 28.4303 13.5538 28.3331C13.5307 28.2368 13.5538 28.1209 13.6227 27.9876C13.7051 27.8244 13.8082 27.7161 13.9307 27.6617C14.0546 27.6081 14.2067 27.6104 14.3899 27.6671L14.8773 26.5476C14.4665 26.3986 14.1082 26.4043 13.8039 26.5638C13.4997 26.7248 13.2268 27.0438 12.9849 27.5201C12.7883 27.9095 12.6815 28.2397 12.6659 28.5126C12.651 28.7841 12.7 29.02 12.8143 29.2174C12.9285 29.4148 13.0815 29.5623 13.2735 29.6595C13.5649 29.8079 13.8603 29.8213 14.1583 29.6997C14.4565 29.5794 14.7904 29.2954 15.1599 28.8473C15.3847 28.5736 15.5561 28.4126 15.6764 28.3665C15.7952 28.3197 15.9034 28.322 16 28.3702C16.1022 28.4229 16.1692 28.5126 16.2011 28.6408C16.233 28.7693 16.2076 28.9154 16.1233 29.0801C16.0119 29.3011 15.8501 29.4324 15.6396 29.474C15.5089 29.5008 15.3488 29.48 15.1582 29.4125L14.6708 30.5446C15.0639 30.7033 15.4445 30.7235 15.8134 30.6024C16.1814 30.4813 16.5261 30.1045 16.8475 29.4695C17.0315 29.1074 17.1309 28.7824 17.1471 28.491C17.1634 28.201 17.1041 27.9383 16.9691 27.7039C16.8335 27.4697 16.6463 27.2917 16.4076 27.17ZM17.5069 22.4429L16.6649 21.8449L14.3919 25.0511L15.234 25.6477L15.9974 24.5728L18.5672 26.3954L19.315 25.342L16.7446 23.5177L17.5069 22.4429ZM21.6894 19.4896C21.2051 19.0222 20.6969 18.7943 20.1665 18.8062C19.6361 18.8179 19.1293 19.0734 18.6458 19.5751C18.1747 20.0639 17.9434 20.5781 17.9528 21.1165C17.9624 21.6538 18.2131 22.1597 18.7051 22.6343C19.0575 22.9733 19.4173 23.187 19.7845 23.2744C20.1517 23.3613 20.4975 23.3465 20.8194 23.2283C21.143 23.1095 21.4678 22.8804 21.7957 22.5406C22.1184 22.2067 22.3238 21.8677 22.415 21.5227C22.5055 21.1778 22.495 20.8379 22.3839 20.5018C22.2734 20.167 22.0421 19.8295 21.6894 19.4896ZM21.0687 21.9008C20.8818 22.0959 20.6673 22.1848 20.4254 22.17C20.1836 22.1552 19.9107 22.0008 19.6073 21.7071C19.3002 21.4111 19.1347 21.1424 19.1116 20.9014C19.0885 20.6596 19.1666 20.4445 19.3483 20.2574C19.5375 20.0608 19.7526 19.9696 19.9939 19.9799C20.2343 19.9924 20.4961 20.1349 20.7804 20.4078C21.1171 20.7328 21.298 21.0131 21.3225 21.2484C21.3461 21.4831 21.2621 21.7011 21.0687 21.9008ZM23.7245 15.3394L24.6865 17.7847L22.6651 16.1037L21.286 17.099L23.7348 20.4909L24.5931 19.8716L22.7258 17.285L25.254 19.3956L26.0308 18.8341L24.8252 15.7704L26.6917 18.3573L27.5509 17.7374L25.1021 14.3454L23.7245 15.3394ZM29.0368 15.9393L28.6741 15.1981L30.4813 14.3135L30.1059 13.547L28.2987 14.4326L28.0055 13.835L29.9538 12.8809L29.5612 12.0787L26.4493 13.6034L28.2898 17.3599L31.4584 15.8091L31.0414 14.9582L29.0368 15.9393ZM34.8521 13.151C34.7319 13.0712 34.6444 13.0208 34.5895 13.0026C34.5063 12.9752 34.3846 12.9587 34.2214 12.955C34.3929 12.8559 34.5205 12.759 34.6065 12.6619C34.741 12.5106 34.8299 12.3397 34.8743 12.15C34.9188 11.9597 34.9054 11.7534 34.8364 11.5318C34.7578 11.278 34.6288 11.0811 34.4499 10.9432C34.2713 10.8042 34.0701 10.7341 33.8491 10.731C33.6266 10.7282 33.3255 10.7871 32.9432 10.9062L30.887 11.5472L32.1327 15.5416L33.3716 15.1545L32.8674 13.5336L32.9757 13.5005C33.0885 13.4652 33.199 13.4641 33.3073 13.4982C33.3867 13.525 33.4936 13.6039 33.6272 13.7367L34.6664 14.7514L36.0617 14.3167L35.1025 13.3453C35.0555 13.2957 34.9715 13.2319 34.8521 13.151ZM33.6229 12.273C33.5918 12.3556 33.5383 12.4189 33.4614 12.4602C33.3115 12.5471 33.2075 12.5992 33.1511 12.6163L32.6313 12.7792L32.3783 11.9665L32.9207 11.7981C33.1454 11.7281 33.3101 11.7147 33.4132 11.7585C33.5155 11.8013 33.5884 11.8882 33.6283 12.0172C33.6548 12.1041 33.6534 12.1893 33.6229 12.273ZM41.6209 11.6748C41.4947 11.4999 41.3041 11.3609 41.0512 11.2569C40.7968 11.1526 40.3829 11.0632 39.81 10.9891C39.5784 10.9603 39.4302 10.9216 39.3647 10.8712C39.2981 10.8236 39.2616 10.7666 39.2556 10.6997C39.2482 10.6085 39.2801 10.5285 39.3505 10.4581C39.4211 10.3886 39.5314 10.3476 39.6807 10.3353C39.8633 10.3202 40.0085 10.3504 40.1191 10.4276C40.2304 10.504 40.3091 10.635 40.3572 10.8205L41.5651 10.6475C41.4759 10.2202 41.2839 9.91856 40.9879 9.74365C40.6919 9.56903 40.2772 9.50351 39.7445 9.54738C39.3106 9.58384 38.973 9.66759 38.7326 9.79664C38.4922 9.92625 38.3187 10.0915 38.2096 10.2926C38.1013 10.4934 38.056 10.7008 38.0737 10.915C38.1005 11.2415 38.2443 11.4996 38.5047 11.6899C38.7628 11.8802 39.1798 12.0152 39.7556 12.0955C40.1065 12.1425 40.3336 12.2052 40.435 12.2824C40.5373 12.3602 40.5931 12.4528 40.6011 12.5607C40.6116 12.6741 40.57 12.7792 40.478 12.8729C40.3846 12.9672 40.2464 13.0225 40.0627 13.0376C39.8162 13.0587 39.6197 12.99 39.473 12.8322C39.3832 12.7342 39.3166 12.5878 39.2733 12.391L38.0538 12.569C38.125 12.9875 38.3084 13.3213 38.6036 13.5717C38.8995 13.8224 39.4018 13.9179 40.1111 13.8589C40.5153 13.8258 40.8446 13.739 41.1007 13.6008C41.356 13.4623 41.5488 13.2732 41.6779 13.0359C41.8069 12.7986 41.8605 12.5456 41.8383 12.2781C41.8195 12.0505 41.7471 11.8486 41.6209 11.6748ZM44.0488 9.53826L42.1935 13.6039L43.5104 13.6942L43.762 13.0188L45.2256 13.1196L45.3872 13.8224L46.738 13.9156L45.4561 9.63398L44.0488 9.53826ZM44.103 12.1363L44.6625 10.6675L45.02 12.1989L44.103 12.1363ZM51.1609 10.6074L47.3137 9.80319L47.1024 10.8148L48.3931 11.0845L47.7485 14.168L49.0133 14.4323L49.6588 11.348L50.9487 11.6184L51.1609 10.6074ZM52.224 10.9689L50.9125 14.9414L52.1426 15.3476L53.4541 11.3751L52.224 10.9689ZM56.6469 14.6095C56.4763 14.3936 56.161 14.1127 55.698 13.7657C55.5112 13.627 55.4012 13.5202 55.3696 13.4438C55.3345 13.3692 55.3308 13.3025 55.3585 13.2416C55.3969 13.1587 55.4644 13.1037 55.5596 13.0781C55.6559 13.0518 55.7718 13.0704 55.9091 13.1333C56.0746 13.2097 56.1866 13.3079 56.2444 13.4296C56.3031 13.5507 56.3074 13.7036 56.2578 13.8885L57.395 14.3338C57.5278 13.9173 57.5078 13.5601 57.3377 13.2621C57.1657 12.9638 56.8364 12.7032 56.3512 12.4793C55.955 12.2969 55.6211 12.2029 55.3476 12.1984C55.0747 12.1927 54.8417 12.2508 54.6494 12.3724C54.4552 12.4941 54.3133 12.6519 54.2244 12.8479C54.0871 13.1447 54.0848 13.4404 54.2184 13.7344C54.3492 14.0267 54.6457 14.35 55.1072 14.7027C55.3898 14.9169 55.5559 15.0827 55.6063 15.2006C55.6576 15.318 55.6599 15.4257 55.6146 15.524C55.5664 15.6274 55.4787 15.698 55.3528 15.735C55.226 15.7718 55.0784 15.751 54.9115 15.6741C54.6867 15.5704 54.5489 15.4146 54.499 15.2046C54.468 15.0759 54.4833 14.9149 54.542 14.722L53.3929 14.2776C53.2482 14.6759 53.2439 15.0565 53.3772 15.4214C53.5117 15.784 53.9025 16.1148 54.5486 16.4125C54.9166 16.5822 55.2459 16.67 55.5368 16.6751C55.8282 16.68 56.0889 16.6113 56.3179 16.4666C56.5472 16.3236 56.7176 16.1299 56.8304 15.8866C56.9253 15.6792 56.9617 15.469 56.9372 15.2536C56.9133 15.0394 56.8167 14.8249 56.6469 14.6095ZM60.673 16.909L59.3125 16.0287L59.7093 15.4148L61.302 16.4458L61.7903 15.6903L59.1071 13.9552L56.8355 17.4688L57.9254 18.1735L58.8541 16.7381L60.2155 17.6186L60.673 16.909ZM63.2257 16.8332L59.3236 19.0128L60.3317 19.8651L60.9334 19.4697L62.0552 20.4172L61.7689 21.0803L62.803 21.9535L64.3031 17.7439L63.2257 16.8332ZM62.4335 19.5534L61.7324 18.9592L63.0522 18.106L62.4335 19.5534ZM66.122 23.173C65.8838 23.3038 65.6716 23.3667 65.4839 23.3622C65.297 23.3584 65.1213 23.2636 64.958 23.0759C64.7919 22.8836 64.7259 22.6782 64.7637 22.4594C64.8008 22.2406 64.9936 21.978 65.3437 21.6737C65.6249 21.4282 65.8713 21.2909 66.0813 21.2655C66.3602 21.2285 66.5977 21.3205 66.7897 21.5415C66.8743 21.6387 66.9313 21.7449 66.9595 21.8583C66.9886 21.9726 66.9894 22.0891 66.9618 22.2084C66.9461 22.2802 66.904 22.3731 66.8342 22.4867L67.7748 23.1804C68.0121 22.7799 68.111 22.397 68.0736 22.029C68.0366 21.6609 67.8443 21.2789 67.4979 20.8821C67.0558 20.3739 66.5735 20.1038 66.0514 20.0696C65.5292 20.0369 65.0076 20.2477 64.4854 20.7023C64.0943 21.0436 63.8413 21.402 63.728 21.778C63.6151 22.1549 63.6032 22.4953 63.6932 22.7987C63.7835 23.1029 63.9772 23.4262 64.2763 23.7689C64.5225 24.0524 64.766 24.249 65.007 24.3603C65.248 24.4723 65.5027 24.5199 65.7705 24.5036C66.0391 24.4865 66.318 24.4028 66.608 24.2515L66.122 23.173ZM70.5426 27.0649L71.4143 26.5114L69.3106 23.1932L68.438 23.7459L69.1442 24.8594L66.4832 26.547L67.1754 27.6383L69.8364 25.9513L70.5426 27.0649ZM71.8852 27.5076L68.1232 29.3356L68.6878 30.501L72.4518 28.673L71.8852 27.5076ZM72.4743 34.6043C73.1124 34.3875 73.5471 34.0411 73.7807 33.5642C74.0143 33.0873 74.018 32.5196 73.795 31.8601C73.5768 31.2169 73.2267 30.7753 72.7438 30.538C72.2618 30.2999 71.6963 30.2902 71.0494 30.5098C70.587 30.6662 70.2327 30.889 69.9857 31.1753C69.7393 31.4616 69.5946 31.7755 69.5524 32.1159C69.5088 32.4572 69.5629 32.8512 69.7148 33.2984C69.8632 33.7377 70.0709 34.0773 70.3349 34.3154C70.6004 34.5541 70.9075 34.7011 71.2556 34.7567C71.6058 34.8119 72.0105 34.7607 72.4743 34.6043ZM70.6167 32.946C70.5298 32.6902 70.5477 32.4595 70.6722 32.2515C70.797 32.043 71.0594 31.8709 71.4593 31.7351C71.8621 31.5992 72.1775 31.5755 72.4031 31.6653C72.6293 31.7558 72.7837 31.9242 72.8674 32.1712C72.9549 32.4284 72.9372 32.6623 72.817 32.8708C72.6945 33.0794 72.4484 33.2477 72.0758 33.3739C71.6322 33.5246 71.3006 33.5571 71.0802 33.4702C70.86 33.3839 70.7058 33.2101 70.6167 32.946ZM75.1894 38.0708L72.903 38.4343L74.9416 36.5152L74.7519 35.323L70.6204 35.9802L70.811 37.1812L73.0794 36.82L71.0579 38.728L71.2485 39.9313L75.3797 39.2741L75.1894 38.0708Z" fill="url(#paint3_linear_12723_2807)"/>
<path d="M11.5698 41.4863L12.2959 42.9582L13.9214 43.1941L12.7449 44.3396L13.0229 45.9574L11.5698 45.1942L10.1172 45.9574L10.3947 44.3396L9.21875 43.1941L10.8434 42.9582L11.5698 41.4863Z" fill="url(#paint4_linear_12723_2807)"/>
<path d="M73.4252 41.4863L74.1514 42.9582L75.776 43.1941L74.6003 44.3396L74.8784 45.9574L73.4252 45.1942L71.9718 45.9574L72.2502 44.3396L71.0742 43.1941L72.6988 42.9582L73.4252 41.4863Z" fill="url(#paint5_linear_12723_2807)"/>
<path d="M42.5003 60.0566L44.7436 64.6012L49.7602 65.3304L46.1292 68.8685L46.987 73.8632L42.5003 71.505L38.0136 73.8632L38.871 68.8685L35.2412 65.3304L40.2569 64.6012L42.5003 60.0566Z" fill="#271C0F"/>
<path d="M52.2418 65.415L53.377 67.7145L55.9154 68.084L54.0786 69.875L54.5127 72.4032L52.2418 71.2087L49.9711 72.4032L50.4049 69.875L48.5684 68.084L51.106 67.7145L52.2418 65.415Z" fill="#271C0F"/>
<path d="M32.7586 65.415L33.8936 67.7145L36.4329 68.084L34.5961 69.875L35.0293 72.4032L32.7586 71.2087L30.4885 72.4032L30.9218 69.875L29.085 68.084L31.6229 67.7145L32.7586 65.415Z" fill="#271C0F"/>
<path d="M53.8105 47.3168L59.4917 33.8789H58.1297L52.4295 47.3168H53.8105ZM41.3275 46.2143C41.6688 46.5921 42.1274 46.8701 42.7006 47.049C43.2763 47.2276 43.9959 47.3168 44.8639 47.3168C45.5219 47.3168 46.1176 47.2322 46.6497 47.061C47.1825 46.8903 47.6371 46.6115 48.014 46.2212C48.3914 45.8332 48.6384 45.4141 48.7572 44.9666C48.8774 44.5185 48.9381 43.8049 48.9381 42.8244V38.5069C48.9381 37.5261 48.8817 36.8125 48.772 36.3644C48.6606 35.9171 48.4516 35.5135 48.1399 35.1574C47.8283 34.7999 47.3596 34.4985 46.7312 34.2501C46.1028 34.0023 45.3901 33.8792 44.5947 33.8792C43.6199 33.8792 42.7892 34.0558 42.1044 34.4142C41.419 34.7717 40.962 35.2451 40.7304 35.8377C40.5011 36.4296 40.3855 37.3176 40.3855 38.5069V43.0238C40.3855 43.9357 40.4567 44.6003 40.6014 45.0187C40.7444 45.4369 40.9871 45.8355 41.3275 46.2143ZM44.0107 37.4198C44.0107 36.7544 44.0546 36.3279 44.142 36.1445C44.2281 35.9613 44.4061 35.8684 44.6753 35.8684C44.9505 35.8684 45.124 35.9545 45.1998 36.1297C45.2755 36.3017 45.3111 36.7319 45.3111 37.4196V43.8314C45.3111 44.4658 45.2704 44.8729 45.1872 45.0541C45.1026 45.2358 44.9269 45.3264 44.6582 45.3264C44.3873 45.3264 44.213 45.2486 44.1324 45.0942C44.0514 44.9407 44.0107 44.488 44.0107 43.7351V37.4198ZM22.9941 36.1989V37.7084H23.3525C24.1914 37.7084 24.7301 37.7588 24.9728 37.8634C25.2156 37.9679 25.3637 38.1206 25.4172 38.3232C25.4722 38.5249 25.499 39.1273 25.499 40.1304V47.0704H29.1237V34.1265H26.9872C26.0773 35.1714 24.7472 35.8627 22.9941 36.1989ZM31.475 46.2143C31.8154 46.5921 32.2732 46.8701 32.8481 47.049C33.4224 47.2276 34.142 47.3168 35.01 47.3168C35.668 47.3168 36.2637 47.2322 36.7955 47.061C37.3282 46.8903 37.7829 46.6115 38.1592 46.2212C38.5375 45.8332 38.7853 45.4141 38.9038 44.9666C39.0241 44.5185 39.0842 43.8049 39.0842 42.8244V38.5069C39.0842 37.5261 39.0295 36.8125 38.9187 36.3644C38.8073 35.9171 38.5968 35.5135 38.286 35.1574C37.9752 34.7999 37.5049 34.4985 36.8773 34.2501C36.2483 34.0023 35.5367 33.8792 34.7416 33.8792C33.7662 33.8792 32.9367 34.0558 32.2518 34.4142C31.5656 34.7717 31.1078 35.2451 30.8773 35.8377C30.6472 36.4296 30.5324 37.3176 30.5324 38.5069V43.0238C30.5324 43.9357 30.6042 44.6003 30.7474 45.0187C30.8919 45.4369 31.1346 45.8355 31.475 46.2143ZM34.1582 37.4198C34.1582 36.7544 34.2012 36.3279 34.2881 36.1445C34.3741 35.9613 34.553 35.8684 34.8217 35.8684C35.0968 35.8684 35.2726 35.9545 35.347 36.1297C35.4227 36.3017 35.4589 36.7319 35.4589 37.4196V43.8314C35.4589 44.4658 35.4173 44.8729 35.3336 45.0541C35.249 45.2358 35.0738 45.3264 34.804 45.3264C34.5348 45.3264 34.3596 45.2486 34.2796 45.0942C34.1986 44.9407 34.1588 44.488 34.1588 43.7351V37.4198H34.1582ZM61.7937 41.2174C61.6521 40.9192 61.3696 40.6625 60.9457 40.4497C60.5215 40.2366 59.9634 40.1307 59.2758 40.1307C58.6599 40.1307 58.1423 40.2272 57.7229 40.4221C57.3053 40.6158 57.0219 40.8673 56.8757 41.1736C56.7279 41.4801 56.6561 41.9496 56.6561 42.584V44.9193C56.6561 45.4512 56.725 45.8622 56.866 46.15C57.0056 46.4371 57.28 46.6855 57.6828 46.894C58.0864 47.1017 58.6687 47.2048 59.4276 47.2048C60.0931 47.2048 60.6266 47.0974 61.03 46.8807C61.4345 46.6647 61.6969 46.4118 61.8199 46.1189C61.9416 45.8252 62.004 45.3911 62.004 44.8148V42.584C62.0042 41.9709 61.9339 41.5157 61.7937 41.2174ZM59.7068 45.3338C59.7068 45.6534 59.686 45.8554 59.6435 45.9369C59.6019 46.0206 59.4988 46.0617 59.3387 46.0617C59.1652 46.0617 59.0575 46.0238 59.016 45.9497C58.9729 45.8748 58.953 45.6537 58.953 45.2871V42.0245C58.953 41.69 58.9752 41.4784 59.0205 41.3932C59.0658 41.3072 59.1681 41.2656 59.3299 41.2656C59.5034 41.2656 59.6096 41.3049 59.6489 41.3895C59.6868 41.4718 59.7068 41.6841 59.7068 42.0245V45.3338ZM52.689 40.9451C53.353 40.9451 53.8872 40.8377 54.2914 40.6223C54.6942 40.4058 54.9591 40.1529 55.0808 39.862C55.2033 39.5717 55.2648 39.1365 55.2648 38.5548V36.3331C55.2648 35.7152 55.1941 35.256 55.048 34.9583C54.9056 34.6586 54.6215 34.4042 54.1965 34.1948C53.7729 33.9835 53.218 33.8789 52.5363 33.8789C51.9204 33.8789 51.4034 33.9738 50.9843 34.1661C50.5653 34.3583 50.2827 34.6067 50.1371 34.9138C49.9893 35.2204 49.9161 35.6927 49.9161 36.3331V38.6587C49.9161 39.1966 49.9867 39.6105 50.1274 39.8985C50.2676 40.1862 50.5385 40.4332 50.939 40.638C51.3401 40.8434 51.9233 40.9451 52.689 40.9451ZM52.2039 35.7647C52.2039 35.4337 52.2275 35.2269 52.2765 35.1414C52.3246 35.056 52.4295 35.013 52.591 35.013C52.7631 35.013 52.8707 35.0531 52.9092 35.1338C52.9471 35.2132 52.9679 35.4232 52.9679 35.7645V39.0826C52.9679 39.3966 52.9448 39.5968 52.8995 39.682C52.8542 39.7666 52.7557 39.8105 52.5998 39.8105C52.4195 39.8105 52.3098 39.7717 52.2668 39.6971C52.2252 39.6236 52.2036 39.398 52.2036 39.0265L52.2039 35.7647ZM34.771 49.0052L33.3198 52.4459H34.5371L34.7257 51.8767H36.0802L36.2731 52.4459H37.5248L36.0714 49.0052H34.771ZM34.9846 51.1335L35.4068 49.8969L35.8335 51.1335H34.9846ZM59.7774 50.9891H61.635V50.2866H59.7774V49.7405H61.7803V49.0052H58.5821V52.4459H61.8373V51.6662H59.7771V50.9891H59.7774ZM55.8804 50.9891H57.7386V50.2866H55.8804V49.7405H57.8833V49.0052H54.6851V52.4459H57.942V51.6662H55.8804V50.9891ZM50.5206 49.8547H51.7378V52.4459H52.9308V49.8547H54.1475V49.0052H50.5206V49.8547ZM31.9097 51.1039C31.9097 51.2944 31.851 51.4423 31.7345 51.546C31.618 51.6482 31.4579 51.7009 31.2508 51.7009C31.0437 51.7009 30.8813 51.6482 30.7643 51.5423C30.6477 51.4377 30.5899 51.2924 30.5899 51.1039V49.0052H29.3983V51.0549C29.3983 51.2246 29.4348 51.4175 29.5088 51.6366C29.5555 51.7724 29.6402 51.9043 29.7632 52.0334C29.8866 52.161 30.0244 52.261 30.1729 52.3302C30.3227 52.3992 30.509 52.4459 30.7306 52.469C30.9526 52.4935 31.1579 52.5046 31.3465 52.5046C31.6699 52.5046 31.9487 52.4661 32.1818 52.3912C32.3481 52.3348 32.5074 52.2399 32.6586 52.1049C32.8108 51.9699 32.9227 51.8103 32.9939 51.6309C33.0646 51.4505 33.0993 51.2583 33.0993 51.0551V49.0055H31.9094V51.1039H31.9097ZM43.1635 49.0052L41.7147 52.4405L41.1398 51.4488C41.1124 51.3984 41.0569 51.3263 40.9729 51.2358C40.8897 51.1423 40.8259 51.0814 40.7814 51.054C40.7176 51.011 40.6139 50.9694 40.4715 50.9272C40.6487 50.8908 40.7874 50.8463 40.8914 50.7914C41.0495 50.7045 41.1763 50.5934 41.2683 50.4544C41.3594 50.3151 41.4039 50.1515 41.4039 49.9595C41.4039 49.7413 41.3452 49.5553 41.2258 49.4032C41.1056 49.2502 40.9489 49.1457 40.7532 49.0887C40.5589 49.0331 40.2769 49.0049 39.9074 49.0049H37.9188V52.4456H39.1175V51.0494H39.2235C39.3326 51.0494 39.4289 51.0745 39.5157 51.1286C39.579 51.1697 39.6508 51.2577 39.7317 51.3936L40.3681 52.4456H42.9305L43.1188 51.8764H44.475L44.6679 52.4456H45.9179L44.4662 49.0049H43.1635V49.0052ZM40.1302 50.2441C40.0812 50.3019 40.0168 50.3384 39.9374 50.3532C39.7807 50.3843 39.6761 50.3985 39.6206 50.3985H39.1175V49.7003H39.6419C39.8602 49.7003 40.0086 49.7294 40.0878 49.7895C40.1672 49.8487 40.2057 49.9333 40.2057 50.0447C40.2057 50.1202 40.1806 50.1871 40.1302 50.2441ZM43.378 51.1335L43.8002 49.8969L44.2275 51.1335H43.378ZM48.8737 50.9081L47.4189 49.0052H46.3053V52.4459H47.4277V50.5563L48.8737 52.4459H49.9992V49.0052H48.8737V50.9081ZM26.8436 51.199H27.6418V51.5232C27.486 51.6078 27.3464 51.6651 27.2256 51.6998C27.104 51.734 26.9778 51.7511 26.8436 51.7511C26.5624 51.7511 26.3436 51.6725 26.1864 51.5115C26.03 51.3528 25.9505 51.0856 25.9505 50.7142C25.9505 50.3632 26.0283 50.108 26.1841 49.9456C26.3382 49.7841 26.5468 49.7029 26.8088 49.7029C26.9846 49.7029 27.1299 49.737 27.2427 49.806C27.3561 49.8749 27.4364 49.9735 27.4837 50.1034L28.6349 49.9202C28.5645 49.6992 28.4591 49.516 28.3198 49.3704C28.1802 49.2257 28.0044 49.1183 27.7931 49.0499C27.5808 48.981 27.2626 48.9468 26.8345 48.9468C26.3932 48.9468 26.0408 49.0032 25.7787 49.1123C25.4435 49.257 25.1882 49.4676 25.0153 49.745C24.8401 50.0239 24.7541 50.3504 24.7541 50.725C24.7541 51.0816 24.8333 51.3984 24.9914 51.673C25.1509 51.9491 25.3742 52.155 25.6642 52.2955C25.9528 52.4365 26.3266 52.5046 26.7852 52.5046C27.1578 52.5046 27.4794 52.4653 27.7503 52.3875C28.0218 52.3117 28.334 52.1656 28.6867 51.9505V50.484H26.843V51.199H26.8436Z" fill="#1F160C"/>
<defs>
<linearGradient id="paint0_linear_12723_2807" x1="1.84478" y1="42.5005" x2="83.1521" y2="42.5005" gradientUnits="userSpaceOnUse">
<stop stop-color="#BFBFBF"/>
<stop offset="0.0385" stop-color="#C0C2C4"/>
<stop offset="0.1099" stop-color="#EFF0F0"/>
<stop offset="0.1139" stop-color="#EAEBEB"/>
<stop offset="0.1435" stop-color="#CCCDCD"/>
<stop offset="0.1724" stop-color="#B6B7B7"/>
<stop offset="0.2001" stop-color="#A9A9A9"/>
<stop offset="0.2253" stop-color="#A5A5A5"/>
<stop offset="0.2448" stop-color="#B1B1B1"/>
<stop offset="0.3107" stop-color="#D3D3D3"/>
<stop offset="0.3733" stop-color="#EBEBEB"/>
<stop offset="0.4307" stop-color="#FAFAFA"/>
<stop offset="0.478" stop-color="white"/>
<stop offset="0.5384" stop-color="#F5F5F5"/>
<stop offset="0.6421" stop-color="#D9DADB"/>
<stop offset="0.7253" stop-color="#BEC0C2"/>
<stop offset="0.8462" stop-color="#E0E1E2"/>
<stop offset="0.9231" stop-color="#A0A1A3"/>
<stop offset="1" stop-color="#A8A8A8"/>
</linearGradient>
<linearGradient id="paint1_linear_12723_2807" x1="83.1591" y1="29.024" x2="-0.15675" y2="56.6376" gradientUnits="userSpaceOnUse">
<stop stop-color="#BFBFBF"/>
<stop offset="0.0385" stop-color="#C0C2C4"/>
<stop offset="0.1099" stop-color="#EFF0F0"/>
<stop offset="0.1139" stop-color="#EAEBEB"/>
<stop offset="0.1435" stop-color="#CCCDCD"/>
<stop offset="0.1724" stop-color="#B6B7B7"/>
<stop offset="0.2001" stop-color="#A9A9A9"/>
<stop offset="0.2253" stop-color="#A5A5A5"/>
<stop offset="0.2448" stop-color="#B1B1B1"/>
<stop offset="0.3107" stop-color="#D3D3D3"/>
<stop offset="0.3733" stop-color="#EBEBEB"/>
<stop offset="0.4307" stop-color="#FAFAFA"/>
<stop offset="0.478" stop-color="white"/>
<stop offset="0.5384" stop-color="#F5F5F5"/>
<stop offset="0.6421" stop-color="#D9DADB"/>
<stop offset="0.7253" stop-color="#BEC0C2"/>
<stop offset="0.8462" stop-color="#E0E1E2"/>
<stop offset="0.9231" stop-color="#A0A1A3"/>
<stop offset="1" stop-color="#A8A8A8"/>
</linearGradient>
<linearGradient id="paint2_linear_12723_2807" x1="-0.609186" y1="80.889" x2="95.0975" y2="-4.34603" gradientUnits="userSpaceOnUse">
<stop stop-color="#BFBFBF"/>
<stop offset="0.0385" stop-color="#C0C2C4"/>
<stop offset="0.1099" stop-color="#EFF0F0"/>
<stop offset="0.1139" stop-color="#EAEBEB"/>
<stop offset="0.1435" stop-color="#CCCDCD"/>
<stop offset="0.1724" stop-color="#B6B7B7"/>
<stop offset="0.2001" stop-color="#A9A9A9"/>
<stop offset="0.2253" stop-color="#A5A5A5"/>
<stop offset="0.2448" stop-color="#B1B1B1"/>
<stop offset="0.3107" stop-color="#D3D3D3"/>
<stop offset="0.3733" stop-color="#EBEBEB"/>
<stop offset="0.4307" stop-color="#FAFAFA"/>
<stop offset="0.478" stop-color="white"/>
<stop offset="0.5384" stop-color="#F5F5F5"/>
<stop offset="0.6421" stop-color="#D9DADB"/>
<stop offset="0.7253" stop-color="#BEC0C2"/>
<stop offset="0.8462" stop-color="#E0E1E2"/>
<stop offset="0.9231" stop-color="#A0A1A3"/>
<stop offset="1" stop-color="#A8A8A8"/>
</linearGradient>
<linearGradient id="paint3_linear_12723_2807" x1="43.74" y1="33.5304" x2="59.0823" y2="-26.8646" gradientUnits="userSpaceOnUse">
<stop stop-color="#BFBFBF"/>
<stop offset="0.0385" stop-color="#C0C2C4"/>
<stop offset="0.1099" stop-color="#EFF0F0"/>
<stop offset="0.1139" stop-color="#EAEBEB"/>
<stop offset="0.1435" stop-color="#CCCDCD"/>
<stop offset="0.1724" stop-color="#B6B7B7"/>
<stop offset="0.2001" stop-color="#A9A9A9"/>
<stop offset="0.2253" stop-color="#A5A5A5"/>
<stop offset="0.2448" stop-color="#B1B1B1"/>
<stop offset="0.3107" stop-color="#D3D3D3"/>
<stop offset="0.3733" stop-color="#EBEBEB"/>
<stop offset="0.4307" stop-color="#FAFAFA"/>
<stop offset="0.478" stop-color="white"/>
<stop offset="0.5384" stop-color="#F5F5F5"/>
<stop offset="0.6421" stop-color="#D9DADB"/>
<stop offset="0.7253" stop-color="#BEC0C2"/>
<stop offset="0.8462" stop-color="#E0E1E2"/>
<stop offset="0.9231" stop-color="#A0A1A3"/>
<stop offset="1" stop-color="#A8A8A8"/>
</linearGradient>
<linearGradient id="paint4_linear_12723_2807" x1="9.21872" y1="43.7219" x2="13.9213" y2="43.7219" gradientUnits="userSpaceOnUse">
<stop stop-color="#BFBFBF"/>
<stop offset="0.0385" stop-color="#C0C2C4"/>
<stop offset="0.1099" stop-color="#EFF0F0"/>
<stop offset="0.1139" stop-color="#EAEBEB"/>
<stop offset="0.1435" stop-color="#CCCDCD"/>
<stop offset="0.1724" stop-color="#B6B7B7"/>
<stop offset="0.2001" stop-color="#A9A9A9"/>
<stop offset="0.2253" stop-color="#A5A5A5"/>
<stop offset="0.2448" stop-color="#B1B1B1"/>
<stop offset="0.3107" stop-color="#D3D3D3"/>
<stop offset="0.3733" stop-color="#EBEBEB"/>
<stop offset="0.4307" stop-color="#FAFAFA"/>
<stop offset="0.478" stop-color="white"/>
<stop offset="0.5384" stop-color="#F5F5F5"/>
<stop offset="0.6421" stop-color="#D9DADB"/>
<stop offset="0.7253" stop-color="#BEC0C2"/>
<stop offset="0.8462" stop-color="#E0E1E2"/>
<stop offset="0.9231" stop-color="#A0A1A3"/>
<stop offset="1" stop-color="#A8A8A8"/>
</linearGradient>
<linearGradient id="paint5_linear_12723_2807" x1="71.0742" y1="43.7219" x2="75.7761" y2="43.7219" gradientUnits="userSpaceOnUse">
<stop stop-color="#BFBFBF"/>
<stop offset="0.0385" stop-color="#C0C2C4"/>
<stop offset="0.1099" stop-color="#EFF0F0"/>
<stop offset="0.1139" stop-color="#EAEBEB"/>
<stop offset="0.1435" stop-color="#CCCDCD"/>
<stop offset="0.1724" stop-color="#B6B7B7"/>
<stop offset="0.2001" stop-color="#A9A9A9"/>
<stop offset="0.2253" stop-color="#A5A5A5"/>
<stop offset="0.2448" stop-color="#B1B1B1"/>
<stop offset="0.3107" stop-color="#D3D3D3"/>
<stop offset="0.3733" stop-color="#EBEBEB"/>
<stop offset="0.4307" stop-color="#FAFAFA"/>
<stop offset="0.478" stop-color="white"/>
<stop offset="0.5384" stop-color="#F5F5F5"/>
<stop offset="0.6421" stop-color="#D9DADB"/>
<stop offset="0.7253" stop-color="#BEC0C2"/>
<stop offset="0.8462" stop-color="#E0E1E2"/>
<stop offset="0.9231" stop-color="#A0A1A3"/>
<stop offset="1" stop-color="#A8A8A8"/>
</linearGradient>
</defs>
</svg>
