<svg width="20" height="20" viewBox="0 0 20 20" fill="none" xmlns="http://www.w3.org/2000/svg">
<path d="M17.5 3.60986H2.5C2.16848 3.60986 1.85054 3.74156 1.61612 3.97598C1.3817 4.2104 1.25 4.52834 1.25 4.85986V14.8599C1.25 15.1914 1.3817 15.5093 1.61612 15.7437C1.85054 15.9782 2.16848 16.1099 2.5 16.1099H17.5C17.8315 16.1099 18.1495 15.9782 18.3839 15.7437C18.6183 15.5093 18.75 15.1914 18.75 14.8599V4.85986C18.75 4.52834 18.6183 4.2104 18.3839 3.97598C18.1495 3.74156 17.8315 3.60986 17.5 3.60986ZM16.125 4.85986L10 9.09736L3.875 4.85986H16.125ZM2.5 14.8599V5.42861L9.64375 10.3724C9.74837 10.4449 9.87267 10.4838 10 10.4838C10.1273 10.4838 10.2516 10.4449 10.3562 10.3724L17.5 5.42861V14.8599H2.5Z" fill="#919EAB"/>
</svg>
