<svg width="24" height="25" viewBox="0 0 24 25" fill="none" xmlns="http://www.w3.org/2000/svg">
<g clip-path="url(#clip0_12723_5132)">
<path d="M20.484 4.01344C15.797 -0.672139 8.19902 -0.671013 3.51344 4.01602C-1.17214 8.70305 -1.17101 16.301 3.51602 20.9866C8.20305 25.6722 15.801 25.671 20.4866 20.984C22.7369 18.733 24.0007 15.6803 24 12.4974C23.9994 9.3151 22.7346 6.26335 20.484 4.01344ZM18.1736 17.2159C18.1731 17.2164 18.1726 17.217 18.172 17.2175V17.2135L17.564 17.8175C16.7777 18.6137 15.6325 18.9413 14.544 18.6815C13.4473 18.3879 12.4048 17.9207 11.456 17.2975C10.5745 16.7341 9.75752 16.0755 9.01999 15.3335C8.34138 14.6598 7.73172 13.9201 7.19997 13.1255C6.61835 12.2704 6.15799 11.3389 5.83197 10.3575C5.45824 9.20452 5.76794 7.93941 6.63199 7.08947L7.34397 6.37749C7.54192 6.17864 7.86358 6.17794 8.06238 6.37589C8.06289 6.37641 8.06346 6.37692 8.06397 6.37749L10.312 8.62547C10.5108 8.82342 10.5115 9.14508 10.3135 9.34388C10.313 9.34439 10.3125 9.34491 10.312 9.34547L8.99196 10.6655C8.61321 11.0401 8.56558 11.6354 8.87997 12.0655C9.35739 12.7207 9.88572 13.3373 10.46 13.9095C11.1003 14.5525 11.7963 15.1375 12.54 15.6575C12.9697 15.9572 13.5522 15.9067 13.924 15.5375L15.1999 14.2415C15.3979 14.0427 15.7195 14.042 15.9183 14.2399C15.9189 14.2404 15.9194 14.241 15.9199 14.2415L18.172 16.4975C18.3708 16.6954 18.3715 17.017 18.1736 17.2159Z" fill="#201D1D"/>
</g>
<defs>
<clipPath id="clip0_12723_5132">
<rect width="24" height="24" fill="white" transform="translate(0 0.5)"/>
</clipPath>
</defs>
</svg>
