<svg width="24" height="25" viewBox="0 0 24 25" fill="none" xmlns="http://www.w3.org/2000/svg">
<path d="M11.7379 19.6762V20.1027C10.5004 18.7762 7.4207 18.7621 6.1457 20.0559L6.15039 20.0277L6.16445 19.6809C6.32383 19.2871 6.64727 18.9824 7.00352 18.7668C8.3582 17.9277 11.002 18.0824 11.7379 19.6762ZM5.99102 13.0293C5.80352 12.6449 5.44727 12.3684 5.07227 12.1762C3.75508 11.459 1.33633 11.8668 0.862891 13.1371L0.853516 13.2355L0.197266 18.6262C1.55195 17.5059 3.66602 17.4402 5.14727 18.3449C5.34883 18.4715 5.53164 18.6215 5.6957 18.7902L6.01914 13.4184C6.00977 13.3902 6.00508 13.3574 6.00508 13.3246L6.01914 13.0668C6.00508 13.0621 6.00039 13.0434 5.99102 13.0293ZM1.65508 6.06836L1.04102 11.1262C2.45664 9.99648 4.78633 10.0246 6.11758 11.2809L6.43633 6.04023C5.78477 4.46523 2.27383 4.4793 1.65508 6.06836ZM0.914453 12.1715C2.31602 10.9715 4.69727 10.9855 6.05664 12.2418L6.06133 12.1387C5.29258 10.4043 1.63633 10.4137 0.914453 12.1715ZM0.998828 18.7152C0.600391 18.9355 0.234766 19.259 0.0660156 19.6902L0.0332031 20.009C1.3457 18.7527 4.40664 18.8043 5.61602 20.1496L5.63945 19.6715C4.91289 18.1105 2.34883 17.9371 0.998828 18.7152ZM17.3488 11.1777C17.3535 11.1777 17.3535 11.1777 17.3535 11.1824L17.0441 6.0543C16.7629 5.35586 15.7691 4.84961 14.6535 4.84961C13.5379 4.84961 12.5441 5.35117 12.2629 6.04961V11.234C13.6223 10.0199 15.9613 10.0012 17.3488 11.1777ZM17.7801 18.6918C17.7754 18.5605 17.466 13.6246 17.4566 13.3012L17.452 13.2965L17.4426 13.1324C16.9176 12.0168 15.3941 11.6887 14.1848 11.8809C13.5098 12.0027 12.8113 12.2934 12.4035 12.8699C12.3473 12.9543 12.3051 13.0387 12.2629 13.1324V18.748C13.7254 17.398 16.2848 17.3887 17.7801 18.6918ZM12.502 12.0168C13.9082 10.9996 16.0973 11.0371 17.4098 12.1949C17.3441 11.8902 17.0816 11.6371 16.8426 11.4449C16.0832 10.8965 15.0848 10.7465 14.1707 10.9012C13.5426 11.0137 12.9051 11.2668 12.4879 11.7637C12.3895 11.8996 12.2582 12.0496 12.2582 12.2184C12.3379 12.1527 12.4082 12.0824 12.4926 12.0215C12.4973 12.0168 12.502 12.0168 12.502 12.0168ZM9.15508 11.8246C7.95977 11.8246 6.62852 12.4199 6.55352 13.3059C6.47852 14.5809 6.30508 17.3887 6.23008 18.6918C7.71602 17.3934 10.2848 17.398 11.7426 18.748V13.1324C11.3113 12.1715 10.1254 11.834 9.15508 11.8246ZM23.8129 18.6309C23.8035 18.6121 23.166 13.2449 23.1566 13.2262C22.941 12.3777 21.7879 11.834 20.5551 11.8246C19.5941 11.834 18.4504 12.1574 17.991 13.0762C18.0332 14.5715 18.2348 17.309 18.3145 18.7996C18.6473 18.448 19.0785 18.1949 19.5285 18.0168C20.9301 17.5105 22.6504 17.6559 23.8129 18.6309ZM23.091 12.1715C22.477 10.709 20.0113 10.5355 18.7832 11.2621C18.4926 11.4215 18.2207 11.6418 18.0473 11.9277C17.9816 12.0355 17.9254 12.1105 17.9441 12.2371C19.3129 10.9902 21.6895 10.9715 23.091 12.1715ZM23.9395 19.6855C23.8129 19.348 23.5551 19.0855 23.2691 18.8746C22.2004 18.1527 20.7473 18.0824 19.5754 18.5746C19.0738 18.7949 18.577 19.1465 18.3707 19.6715L18.3941 20.1496C19.5988 18.8043 22.6645 18.748 23.9723 20.009L23.9395 19.6855ZM22.9645 11.1262L22.3504 6.06836C22.0738 5.36523 21.0801 4.8543 19.9598 4.8543C18.8535 4.8543 17.8598 5.35117 17.5738 6.04492L17.8926 11.2855C19.2191 10.0246 21.5488 9.99648 22.9645 11.1262ZM7.70195 11.1355C7.24727 11.3418 6.72227 11.6887 6.59102 12.1949C7.9082 11.0371 10.0926 10.9996 11.4988 12.0168C11.5832 12.0777 11.6582 12.1527 11.7379 12.2184V12.1434C11.1191 10.7793 8.93477 10.5824 7.70195 11.1355ZM6.95664 6.0543C6.90977 6.81367 6.68945 10.5027 6.64727 11.1824C6.65195 11.1777 6.65195 11.1777 6.65195 11.1777C8.03945 10.0012 10.3785 10.0152 11.7379 11.2293V6.04961C11.1004 4.46992 7.58945 4.47461 6.95664 6.0543ZM17.5223 19.184C16.7207 18.3496 15.441 18.1434 14.3348 18.3168C13.5379 18.4668 12.6613 18.8371 12.291 19.6059C12.2395 19.6434 12.2723 20.0371 12.2629 20.098C13.5051 18.7762 16.5801 18.7574 17.8551 20.0512C17.8551 19.9762 17.841 19.7512 17.8363 19.6762C17.766 19.498 17.6582 19.3293 17.5223 19.184Z" fill="white"/>
</svg>
