<svg width="24" height="25" viewBox="0 0 24 25" fill="none" xmlns="http://www.w3.org/2000/svg">
<path d="M3.49219 17.5876V15.7286C3.49219 15.5541 3.56421 15.3868 3.69242 15.2634L11.4557 7.79251C11.7757 7.48453 12.2994 7.48453 12.6194 7.79251L20.3827 15.2634C20.5109 15.3868 20.5829 15.5541 20.5829 15.7286V18.4166C20.5829 18.6891 20.3534 18.91 20.0702 18.91H4.00491C3.72175 18.91 3.49219 18.6891 3.49219 18.4166V17.5876Z" fill="white"/>
<path d="M20.0099 21.1997C20.0096 21.1997 20.0093 21.1997 20.009 21.1997L4.06508 21.1653C3.83349 21.1648 3.64599 20.9766 3.64649 20.7449C3.64698 20.5134 3.8348 20.3262 4.06607 20.3262H4.06705L20.0109 20.3605C20.2425 20.361 20.43 20.5492 20.4295 20.781C20.429 21.0124 20.2412 21.1997 20.0099 21.1997Z" fill="white"/>
<path d="M23.1325 15.7913C22.9255 15.7913 22.7182 15.7152 22.5559 15.5616L12.3837 5.93646C12.1896 5.75277 11.8858 5.75277 11.6916 5.93646L1.51945 15.5616C1.18265 15.8803 0.651781 15.8655 0.333169 15.5289C0.0145573 15.1922 0.0293053 14.661 0.365953 14.3426L11.1218 4.16508C11.6358 3.67913 12.4404 3.67962 12.9534 4.16491L23.7094 14.3426C24.0461 14.661 24.0608 15.1922 23.7422 15.5289C23.5772 15.7032 23.3551 15.7913 23.1325 15.7913Z" fill="white"/>
<path d="M16.5977 6.48383V5.11607C16.5977 5.02339 16.6728 4.94824 16.7655 4.94824H19.7864C19.8791 4.94824 19.9543 5.02339 19.9543 5.11607V9.43088C19.9543 9.57735 19.7798 9.65354 19.6723 9.55396L16.7589 6.85306C16.6561 6.75779 16.5977 6.62398 16.5977 6.48383Z" fill="white"/>
</svg>
