<svg width="20" height="20" viewBox="0 0 20 20" fill="none" xmlns="http://www.w3.org/2000/svg">
<path fill-rule="evenodd" clip-rule="evenodd" d="M16.3321 17.0422H13.4912V12.4C13.4912 11.2944 13.4731 9.87 12.0143 9.87C10.5342 9.87 10.3095 11.0767 10.3095 12.3222V17.0422H7.46861V7.49778H10.1935V8.80222H10.2329C10.6119 8.05222 11.5394 7.26111 12.9226 7.26111C15.8008 7.26111 16.3332 9.23667 16.3332 11.8078V17.0422H16.3321ZM4.26458 6.19444C4.04812 6.19466 3.83374 6.15039 3.63367 6.06415C3.43361 5.97792 3.25178 5.85141 3.09857 5.69185C2.94536 5.53228 2.82377 5.3428 2.74074 5.1342C2.65771 4.9256 2.61486 4.70198 2.61465 4.47611C2.61444 4.25024 2.65687 4.02653 2.73951 3.81777C2.82216 3.60901 2.9434 3.41927 3.09631 3.2594C3.24922 3.09953 3.43082 2.97265 3.63072 2.88601C3.83063 2.79937 4.04493 2.75466 4.26139 2.75444C4.69855 2.754 5.11798 2.93479 5.4274 3.25704C5.73683 3.57929 5.9109 4.01661 5.91132 4.47278C5.91174 4.92895 5.73849 5.36661 5.42966 5.68949C5.12084 6.01236 4.70175 6.194 4.26458 6.19444ZM2.84093 17.0422H5.68611V7.49778H2.83986L2.84093 17.0422ZM17.7483 0H1.41407C0.633565 0 0 0.645556 0 1.44222V18.5567C0 19.3533 0.633565 20 1.41407 20H17.7483C18.5299 20 19.1667 19.3533 19.1667 18.5567V1.44222C19.1667 0.645556 18.5299 0 17.7483 0Z" fill="#F7413D"/>
</svg>
