<svg width="20" height="20" viewBox="0 0 20 20" fill="none" xmlns="http://www.w3.org/2000/svg">
<g clip-path="url(#clip0_12727_841)">
<path d="M19.9479 7.67148C19.8169 7.2665 19.4577 6.97887 19.0328 6.94057L13.2602 6.41641L10.9776 1.07372C10.8093 0.682166 10.426 0.428711 10.0001 0.428711C9.57422 0.428711 9.19091 0.682166 9.0226 1.07463L6.73998 6.41641L0.966514 6.94057C0.542309 6.97978 0.184023 7.2665 0.0523365 7.67148C-0.0793503 8.07646 0.0422654 8.52065 0.363166 8.80066L4.72653 12.6274L3.43987 18.2951C3.34573 18.7118 3.50747 19.1426 3.85325 19.3925C4.0391 19.5268 4.25655 19.5952 4.47582 19.5952C4.66488 19.5952 4.85242 19.5442 5.02073 19.4435L10.0001 16.4675L14.9776 19.4435C15.3419 19.6626 15.801 19.6426 16.146 19.3925C16.492 19.1418 16.6536 18.7109 16.5594 18.2951L15.2728 12.6274L19.6361 8.80142C19.957 8.52065 20.0796 8.07722 19.9479 7.67148Z" fill="#FEC84B"/>
</g>
<defs>
<clipPath id="clip0_12727_841">
<rect width="20" height="20" fill="white"/>
</clipPath>
</defs>
</svg>
