<svg width="20" height="21" viewBox="0 0 20 21" fill="none" xmlns="http://www.w3.org/2000/svg">
<g clip-path="url(#clip0_12762_1260)">
<path d="M19.9479 8.17148C19.8169 7.7665 19.4577 7.47887 19.0328 7.44057L13.2602 6.91641L10.9776 1.57372C10.8093 1.18217 10.426 0.928711 10.0001 0.928711C9.57422 0.928711 9.19091 1.18217 9.0226 1.57463L6.73998 6.91641L0.966514 7.44057C0.542309 7.47978 0.184023 7.7665 0.0523365 8.17148C-0.0793503 8.57646 0.0422654 9.02065 0.363166 9.30066L4.72653 13.1274L3.43987 18.7951C3.34573 19.2118 3.50747 19.6426 3.85325 19.8925C4.0391 20.0268 4.25655 20.0952 4.47582 20.0952C4.66488 20.0952 4.85242 20.0442 5.02073 19.9435L10.0001 16.9675L14.9776 19.9435C15.3419 20.1626 15.801 20.1426 16.146 19.8925C16.492 19.6418 16.6536 19.2109 16.5594 18.7951L15.2728 13.1274L19.6361 9.30142C19.957 9.02065 20.0796 8.57722 19.9479 8.17148Z" fill="#FD9D4F"/>
</g>
<defs>
<clipPath id="clip0_12762_1260">
<rect width="20" height="20" fill="white" transform="translate(0 0.5)"/>
</clipPath>
</defs>
</svg>
