<?xml version="1.0" encoding="UTF-8"?> <svg xmlns="http://www.w3.org/2000/svg" width="2268" height="524" viewBox="0 0 2268 524" fill="none"><path d="M0.111565 5.34132C1.59909 5.28556 3.06803 5.15547 4.55556 5.15547C99.553 5.15547 194.55 5.15547 289.566 5.15547C290.459 5.15547 291.351 5.21122 292.244 5.15547C293.527 5.06254 294.531 5.52717 295.386 6.45641C296.093 7.21839 296.837 7.9432 297.58 8.66801C355.724 66.7457 413.849 124.805 471.975 182.882C473.128 184.035 474.243 185.206 475.638 186.637C426.791 234.883 378.074 282.98 329.432 331.004C327.87 330.818 327.238 329.74 326.438 328.941C302.861 305.673 279.284 282.386 255.706 259.099C215.971 219.829 176.235 180.578 136.481 141.308C114.28 119.378 92.0781 97.4664 69.8767 75.5549C47.6568 53.6434 25.4554 31.7318 3.25397 9.80168C2.10114 8.66801 1.07846 7.40424 0 6.19622C0.0929706 5.91745 0.130159 5.62009 0.111565 5.34132Z" fill="#D00910"></path><path d="M331.161 5.30421C332.798 5.24846 334.434 5.15553 336.052 5.15553C434.21 5.15553 532.35 5.15553 630.508 5.15553C631.401 5.15553 632.293 5.21129 633.186 5.15553C634.785 5.02544 636.086 5.50864 637.109 6.75383C637.686 7.44147 638.355 8.0176 638.987 8.64949C695.346 64.9616 751.723 121.255 808.082 177.567C809.123 178.608 810.127 179.686 811.02 180.615C811.057 180.987 811.113 181.136 811.094 181.266C811.076 181.414 811.001 181.563 810.908 181.656C760.5 231.482 710.091 281.326 659.441 331.375C657.99 330.056 656.67 328.941 655.443 327.733C642.018 314.463 628.593 301.194 615.168 287.924C607.972 280.825 600.739 273.781 593.599 266.626C589.025 262.054 589.861 264.098 589.861 257.817C589.824 235.831 589.861 213.845 589.824 191.859C589.824 190.261 590.196 188.607 589.452 187.101C585.975 186.488 553.138 186.284 544.901 186.804C543.971 187.584 544.194 188.681 544.176 189.703C544.176 197.137 544.176 204.552 544.176 211.986C544.176 213.436 544.176 214.867 544.176 216.465C542.372 216.484 541.758 215.332 540.977 214.57C526.455 200.297 511.952 186.005 497.467 171.713C458.866 133.595 420.283 95.4779 381.682 57.3418C365.3 41.1544 348.9 24.967 332.5 8.77958C331.979 8.2592 331.552 7.66449 331.068 7.10694C331.106 6.51223 331.124 5.91751 331.161 5.3228V5.30421Z" fill="#D00910"></path><path d="M1678.6 327.082V6.86535C1679.59 5.86177 1680.69 6.19629 1681.69 6.19629C1723.62 6.19629 1765.57 5.91752 1807.5 6.27063C1835.02 6.51224 1861.92 10.9168 1887.66 21.1571C1907.2 28.9442 1924.83 39.742 1939.91 54.5169C1958.26 72.5071 1970.66 93.9911 1977.52 118.69C1980.52 129.432 1982.25 140.398 1983.12 151.53C1983.97 162.383 1983.92 173.218 1982.71 183.998C1976.61 238.228 1950.08 278.873 1901.62 304.725C1883.92 314.166 1864.94 319.964 1845.21 323.421C1830.54 325.986 1815.75 327.12 1800.84 327.082C1761.89 327.008 1722.91 327.064 1683.96 327.064H1678.62L1678.6 327.082ZM1767.91 85.312C1767.28 91.6866 1767.46 244.659 1768.06 248.004C1768.43 248.115 1768.86 248.32 1769.27 248.32C1784.13 248.134 1799 248.84 1813.86 247.799C1823.41 247.13 1832.73 245.402 1841.71 242.187C1865.73 233.601 1881.93 217.376 1888.83 192.621C1893.05 177.511 1893.25 162.105 1890.15 146.735C1885.2 122.184 1871.31 104.529 1848.48 94.0655C1835.17 87.9697 1821.05 85.4049 1806.48 85.312C1794.87 85.2377 1783.27 85.312 1771.67 85.312C1770.5 85.312 1769.34 85.312 1767.89 85.312H1767.91Z" fill="#D00910"></path><path d="M1115.44 333.364C1080.97 333.438 1051.67 326.822 1024.61 311.768C981.026 287.515 953.6 250.922 942.685 202.266C939.264 187.008 938.446 171.453 939.487 155.786C941.551 124.953 951.257 96.8346 969.182 71.7079C992.387 39.1844 1023.61 17.9047 1061.95 6.92106C1074.55 3.3156 1087.42 1.27127 1100.53 0.43495C1132.77 -1.60938 1163.7 3.66872 1192.66 17.9976C1235.13 38.9799 1263.9 72.0796 1278.18 117.408C1283.81 135.287 1285.82 153.648 1285.17 172.326C1283.83 210.462 1270.96 244.287 1246.2 273.335C1220.5 303.442 1187.76 321.804 1149.06 329.759C1136.79 332.268 1124.41 333.531 1115.46 333.383L1115.44 333.364ZM1194.23 166.007C1194.6 153.946 1191.23 140.583 1187.07 130.715C1172.49 96.3514 1138.91 75.685 1099.75 81.2047C1073.77 84.8659 1054.06 98.6559 1041.74 121.72C1027.18 148.947 1026.69 177.14 1039.02 205.352C1045.34 219.829 1055.35 231.519 1068.62 240.18C1085.64 251.275 1104.38 254.992 1124.41 252.241C1148.34 248.952 1166.91 237.039 1180.1 216.911C1189.89 201.969 1194.28 185.391 1194.21 166.007H1194.23Z" fill="#D00910"></path><path d="M1482.47 333.345C1449.17 333.476 1420.26 327.045 1393.52 312.437C1349.3 288.296 1321.43 251.516 1310.37 202.341C1306.93 187.083 1306.11 171.527 1307.15 155.86C1308.88 129.6 1316.19 105.086 1329.76 82.58C1351.68 46.2094 1383.27 21.8819 1423.57 8.72377C1438.18 3.94747 1453.19 1.34559 1468.55 0.397758C1494.71 -1.23771 1520.16 2.12615 1544.71 11.3071C1584.29 26.1192 1614.43 51.9707 1634.39 89.3449C1643.05 105.588 1648.44 122.928 1651.18 141.141C1653.11 154.002 1653.48 166.899 1652.48 179.779C1649.99 211.466 1639.35 240.235 1620.07 265.604C1594.99 298.592 1561.83 319.202 1521.59 328.681C1507.8 331.933 1493.81 333.531 1482.49 333.327L1482.47 333.345ZM1561.87 165.58C1562.17 154.633 1559.66 142.2 1554.54 130.324C1539.37 95.1062 1505.19 75.6478 1466.98 81.2419C1441.04 85.0518 1421.43 98.9161 1409.19 122.054C1394.84 149.188 1394.32 177.27 1406.68 205.277C1414.55 223.119 1427.47 236.574 1445.17 245.16C1460.05 252.39 1475.74 254.471 1492.03 252.223C1516.15 248.896 1534.8 236.871 1548 216.54C1557.63 201.69 1561.98 185.243 1561.89 165.561L1561.87 165.58Z" fill="#D00910"></path><path d="M1986.88 279.096C2003.31 259.526 2019.71 239.994 2035.95 220.647C2037.73 220.758 2038.47 221.799 2039.39 222.505C2056.08 235.199 2074.19 245.197 2094.28 251.479C2111.46 256.869 2129.03 259.248 2147.03 258.355C2152.1 258.114 2157.05 257.166 2161.86 255.549C2164.56 254.639 2167.03 253.338 2169.4 251.739C2179.42 244.937 2180.5 228.657 2169.6 221.316C2165.38 218.472 2160.86 216.298 2156.1 214.532C2144.8 210.332 2133.12 207.507 2121.4 204.813C2103.46 200.668 2085.61 196.189 2068.34 189.666C2055.79 184.908 2043.76 179.147 2033.01 170.97C2016.38 158.332 2006.29 141.828 2003.18 121.106C2000.45 102.856 2001.71 84.9588 2008.31 67.6563C2016.59 45.9306 2031.5 29.9291 2051.56 18.4994C2065.01 10.8424 2079.51 6.15904 2094.68 3.5014C2108.2 1.12254 2121.85 0.416316 2135.55 0.955277C2157.92 1.81018 2179.9 4.98819 2201.21 12.1434C2220.83 18.741 2238.83 28.3122 2255.24 40.8941C2256.29 41.6933 2257.49 42.3438 2258.31 44.035C2243.75 64.6642 2229.01 85.4234 2214.3 106.053C2212.37 105.644 2211.31 104.547 2210.1 103.748C2192.99 92.4299 2174.71 83.7508 2154.72 78.7886C2145.02 76.3726 2135.2 74.9973 2125.2 74.7929C2119.06 74.6628 2113.04 75.3876 2107.18 77.3204C2104.33 78.2497 2101.71 79.6064 2099.28 81.3534C2089.31 88.4899 2089.83 103.785 2098.42 110.401C2101.27 112.595 2104.37 114.323 2107.64 115.773C2115.55 119.266 2123.84 121.608 2132.21 123.671C2144.74 126.775 2157.37 129.544 2169.88 132.722C2182.69 135.974 2195.28 140.026 2207.44 145.23C2216.88 149.281 2225.94 154.039 2234.27 160.116C2245.26 168.145 2254.17 177.939 2259.91 190.391C2264 199.237 2266.1 208.585 2266.94 218.287C2267.98 230.385 2267.16 242.317 2264.3 254.081C2258.48 278 2244.94 296.492 2224.49 310.059C2211.33 318.775 2196.84 324.35 2181.52 327.863C2167.41 331.115 2153.11 332.416 2138.64 332.509C2113.8 332.695 2089.44 329.498 2065.62 322.473C2039.4 314.742 2015.34 302.736 1994.02 285.545C1991.6 283.594 1989.03 281.81 1986.86 279.115L1986.88 279.096Z" fill="#D00910"></path><path d="M673.833 5.3042C675.469 5.24844 677.106 5.15552 678.723 5.15552C780.136 5.15552 881.567 5.15552 982.979 5.15552C984.615 5.15552 986.251 5.24844 987.869 5.3042C987.869 5.80599 987.869 6.30778 987.851 6.80957C984.299 10.3964 980.766 14.0019 977.178 17.5516C959.216 35.3187 941.235 53.0673 923.255 70.8158C893.021 100.682 862.787 130.548 832.552 160.413C831.827 161.138 831.028 161.789 830.396 162.365C829.001 162.253 828.425 161.287 827.718 160.581C776.826 109.751 725.934 58.9215 675.042 8.07334C674.521 7.55296 674.093 6.95825 673.61 6.38212C673.684 6.02901 673.759 5.67589 673.814 5.3042H673.833Z" fill="#D00910"></path><path d="M658.976 400.139C669.779 414.078 680.434 427.794 691.07 441.528C701.706 455.244 712.36 468.941 723.293 483.009C724.26 481.337 723.888 479.887 723.888 478.549C723.907 454.203 723.907 429.857 723.907 405.492V400.771C727.626 400.009 740.158 399.935 744.528 400.567C745.216 404.135 745.253 517.15 744.528 521.183H726.808C716.023 507.281 705.034 493.101 694.008 478.939C683.037 464.833 672.104 450.672 660.278 436.919V520.737C656.689 521.517 644.696 521.647 639.657 521.052C639.564 520.941 639.452 520.83 639.378 520.699C639.304 520.588 639.192 520.439 639.192 520.309C639.155 481.56 639.136 442.81 639.118 404.061C639.118 403.02 639.211 401.998 639.285 400.957C639.285 400.846 639.471 400.734 639.824 400.307C645.886 399.935 652.227 400.251 658.958 400.121L658.976 400.139Z" fill="#D00910"></path><path d="M199.236 398.3C213.851 398.002 227.109 402.147 238.618 411.179C252.006 421.661 259.555 435.544 261.694 452.4C263.72 468.364 260.504 483.195 251.467 496.483C240.831 512.095 225.844 520.811 207.12 523.208C193.788 524.918 180.995 523.134 169.021 517.038C149.553 507.151 138.582 491.112 135.626 469.591C133.431 453.664 136.723 438.833 145.685 425.489C155.54 410.807 169.448 402.147 186.852 399.062C188.451 398.783 190.069 398.43 191.687 398.355C194.197 398.244 196.726 398.318 199.255 398.318L199.236 398.3ZM202.787 417.777C181.255 417.628 167.05 427.812 160.895 443.033C157.827 450.597 156.99 458.459 157.901 466.58C160.095 486.113 175.157 501.966 194.048 503.731C210.058 505.237 223.185 499.903 232.092 486.503C242.114 471.394 242.56 455.169 234.267 439.205C226.848 424.969 214.427 418.092 202.806 417.758L202.787 417.777Z" fill="#D00910"></path><path d="M84.2498 521.183C74.4321 507.3 64.6702 493.473 54.9455 479.72C51.4126 479.069 32.3908 479.032 27.8725 479.701C27.8539 484.199 27.8167 488.752 27.8167 493.324C27.8167 497.933 27.8167 502.542 27.8167 507.133V520.792C24.0049 521.592 10.7101 521.629 6.86109 520.904C6.35905 517.243 6.28467 405.102 6.78671 400.734C7.62345 399.861 8.7205 400.177 9.72459 400.177C27.2774 400.158 44.8303 400.065 62.3646 400.214C69.6721 400.27 76.8308 401.589 83.6734 404.396C100.985 411.495 106.897 426.902 105.893 441.825C105.67 445.078 105.168 448.312 104.146 451.434C101.04 460.838 94.8113 467.51 86.1093 471.951C83.4689 473.29 80.6612 474.293 77.8721 475.483C77.3886 476.839 78.5414 477.601 79.1922 478.493C88.136 491.094 97.1356 503.657 106.117 516.221C107.139 517.652 108.088 519.12 108.943 520.365C108.831 520.83 108.831 521.016 108.738 521.108C108.645 521.201 108.459 521.238 108.329 521.238C101.189 521.294 94.0675 521.331 86.9274 521.369C86.0535 521.369 85.161 521.239 84.2498 521.164V521.183ZM28.1142 419.709C27.984 420.769 27.8353 421.326 27.8353 421.884C27.8353 433.89 27.8353 445.896 27.8353 457.901C27.8353 458.645 27.8353 459.388 28.9509 460.113H32.5396C40.7024 460.113 48.8652 460.132 57.028 460.113C59.4081 460.113 61.7696 459.983 64.131 459.797C68.1845 459.444 71.9963 458.217 75.4176 456.043C82.2789 451.657 84.7333 445.208 84.0081 437.346C83.3387 430.005 79.434 425.006 72.7029 422.163C68.6866 420.453 64.4657 419.765 60.1147 419.747C51.8031 419.709 43.4915 419.747 35.1799 419.747C32.9672 419.747 30.7545 419.747 28.1142 419.747V419.709Z" fill="#D00910"></path><path d="M418.796 460.782C418.387 482.879 409.555 500.646 391.147 513.228C382.538 519.12 372.869 522.242 362.475 523.338C347.488 524.918 333.431 522.242 320.619 514.288C305.131 504.661 295.778 490.666 292.71 472.75C289.567 454.5 293.026 437.569 304.294 422.646C314.019 409.748 327.034 401.942 342.914 399.154C358.124 396.497 372.888 398.114 386.591 405.566C403.698 414.859 413.869 429.355 417.737 448.349C418.573 452.456 418.778 456.582 418.796 460.782ZM396.353 462.77C396.316 458.254 396.074 455.169 395.517 452.084C391.984 432.57 375.212 416.661 353.159 417.795C340.868 418.427 330.828 423.408 323.26 433.09C316.38 441.881 313.74 452.047 314.205 463.086C315.078 484.013 329.972 501.613 350.668 503.787C362.847 505.07 373.65 501.91 382.705 493.603C392.114 484.979 396.112 473.94 396.372 462.789L396.353 462.77Z" fill="#D00910"></path><path d="M1943.72 398.058C1957.5 397.928 1970.18 401.496 1981.41 409.525C1995.24 419.43 2003.57 432.904 2006.25 449.668C2009.02 466.933 2005.93 483.102 1995.69 497.505C1985.04 512.485 1970.31 520.774 1952.12 523.171C1940.37 524.714 1928.96 523.487 1918.06 518.878C1897.48 510.162 1885.02 494.625 1881.08 472.695C1877.8 454.481 1881.37 437.532 1892.66 422.59C1902.38 409.711 1915.44 402.054 1931.28 399.061C1935.41 398.281 1939.54 398.095 1943.7 398.058H1943.72ZM1984.74 461.209C1984.74 458.068 1984.42 455.002 1983.86 451.917C1980.22 432.347 1963.43 416.587 1941.38 417.776C1929.27 418.427 1919.32 423.333 1911.81 432.83C1904.88 441.584 1902.18 451.712 1902.57 462.77C1903.28 483.4 1917.87 501.576 1939.2 503.769C1951.21 505.014 1961.89 501.891 1970.87 493.77C1980.46 485.091 1984.5 473.921 1984.76 461.209H1984.74Z" fill="#D00910"></path><path d="M1790.15 520.941C1789.31 521.164 1788.92 521.368 1788.55 521.368C1780.83 521.368 1773.1 521.368 1765.14 521.368C1755.3 507.448 1745.45 493.528 1735.65 479.683C1732.21 479.106 1715.94 478.958 1709.34 479.422C1708.26 480.333 1708.71 481.615 1708.71 482.731C1708.67 494.012 1708.71 505.293 1708.67 516.574C1708.67 518.023 1709 519.529 1708.11 521.313C1701.49 521.461 1694.72 521.35 1688.22 521.368C1687.84 520.997 1687.73 520.904 1687.64 520.792C1687.57 520.681 1687.45 520.551 1687.45 520.421C1687.42 481.076 1687.4 441.751 1687.38 402.407C1687.38 401.831 1687.51 401.255 1687.57 400.809C1688.55 399.842 1689.65 400.158 1690.63 400.158C1708.02 400.139 1725.4 400.084 1742.79 400.158C1750.27 400.195 1757.57 401.459 1764.51 404.414C1778.84 410.528 1786 421.568 1786.62 436.975C1786.8 441.435 1786.49 445.858 1785.22 450.188C1782.27 460.373 1775.74 467.491 1766.39 472.137C1763.78 473.438 1761.01 474.423 1757.96 475.705C1768.75 490.852 1779.38 505.776 1790.17 520.885L1790.15 520.941ZM1709 419.728C1708.86 420.769 1708.69 421.345 1708.69 421.902C1708.69 433.927 1708.69 445.951 1708.69 457.976C1708.69 458.737 1708.73 459.462 1709.67 460.15C1718.47 460.15 1727.52 460.169 1736.58 460.15C1739.26 460.15 1741.92 460.02 1744.59 459.853C1748.05 459.648 1751.31 458.607 1754.37 457.065C1761.64 453.404 1765.36 446.787 1764.88 438.48C1764.38 430.042 1759.97 424.356 1751.96 421.605C1748.44 420.397 1744.78 419.746 1741.02 419.765C1731.22 419.765 1721.41 419.765 1711.61 419.765C1710.88 419.765 1710.16 419.765 1709 419.765V419.728Z" fill="#D00910"></path><path d="M2089.72 479.441H2063.02C2062.98 482.991 2062.94 486.373 2062.94 489.737C2062.94 493.305 2062.94 496.855 2062.94 500.423V510.664C2062.94 514.046 2062.94 517.447 2062.94 521.164C2059.28 521.647 2055.9 521.35 2052.53 521.406C2049.13 521.461 2045.71 521.406 2042.57 521.406C2041.38 520.625 2041.64 519.659 2041.64 518.804C2041.64 480.054 2041.64 441.324 2041.64 402.574C2041.64 401.979 2041.73 401.403 2041.77 400.902C2042.66 399.917 2043.76 400.195 2044.74 400.195C2062.28 400.195 2079.81 400.102 2097.34 400.214C2104.82 400.27 2112.14 401.571 2119.04 404.581C2133.14 410.714 2140.22 421.679 2140.87 436.9C2141.06 441.361 2140.76 445.784 2139.51 450.114C2136.6 460.299 2130.11 467.454 2120.75 472.137C2118.13 473.457 2115.34 474.442 2112.22 475.743C2122.84 490.889 2133.66 505.683 2144.26 520.774C2140.63 521.61 2129.86 521.796 2119.28 521.238C2109.54 507.467 2099.61 493.436 2089.7 479.46L2089.72 479.441ZM2063.28 419.728C2063.13 420.769 2062.96 421.345 2062.96 421.902C2062.96 433.927 2062.96 445.951 2062.96 457.976C2062.96 458.738 2063 459.462 2063.95 460.15C2072.74 460.15 2081.8 460.169 2090.85 460.15C2093.53 460.15 2096.19 460.02 2098.87 459.853C2102.33 459.648 2105.58 458.608 2108.65 457.065C2115.92 453.385 2119.64 446.788 2119.15 438.48C2118.65 430.043 2114.25 424.356 2106.23 421.605C2102.72 420.397 2099.05 419.747 2095.3 419.747C2085.5 419.765 2075.68 419.747 2065.88 419.747C2065.16 419.747 2064.43 419.747 2063.28 419.747V419.728Z" fill="#D00910"></path><path d="M1038.5 459.388C1045.12 466.487 1051.91 473.085 1058.82 480.147C1064.22 472.862 1067.84 464.945 1072.06 456.991C1077.44 459.815 1082.62 462.529 1088.09 465.391C1083.52 475.334 1077.92 484.329 1071.86 493.268C1078.2 499.773 1084.39 506.147 1090.79 512.708C1085.41 516.555 1080.34 520.16 1074.98 523.989C1069.55 518.544 1064.25 513.228 1059.07 508.025C1057.13 508.731 1056.07 510.013 1054.81 511.035C1047.52 516.927 1039.39 521.164 1030.08 522.576C1020.54 524.045 1011.15 523.394 1002.13 519.473C977.289 508.656 975.467 476.244 994.823 461.6C997.557 459.537 1000.4 457.678 1003.45 456.098C1004.62 455.485 1005.98 455.188 1007.02 453.85C1005.87 452.103 1004.66 450.281 1003.49 448.441C999.62 442.271 997.426 435.655 997.594 428.258C997.835 418.167 1002.09 410.305 1010.2 404.451C1014.5 401.347 1019.35 399.47 1024.54 398.69C1033.05 397.407 1041.48 397.63 1049.27 401.868C1059.21 407.257 1064.51 415.546 1064.79 427.013C1065.05 437.532 1060.76 445.635 1052.45 451.824C1049.45 454.054 1046.22 455.857 1042.81 457.362C1041.48 457.957 1040.16 458.607 1038.46 459.407L1038.5 459.388ZM1046.29 495.164C1041.49 489.347 1021.86 469.703 1019 467.807C1014.61 469.665 1010.72 472.286 1007.65 476.04C1000.29 485.017 1002.35 499.884 1016.13 504.363C1017.69 504.865 1019.27 505.181 1020.91 505.33C1031.03 506.259 1038.97 501.929 1046.29 495.164ZM1026.9 447.587C1032.46 445.71 1037.65 443.293 1041.77 439.038C1042.8 437.997 1043.63 436.696 1044.3 435.395C1048.34 427.552 1044.8 418.185 1036.83 415.658C1033.5 414.598 1030.1 414.673 1026.75 415.806C1019.8 418.148 1016.82 425.285 1017.73 431.901C1018.61 438.257 1022.42 442.959 1026.92 447.587H1026.9Z" fill="#D00910"></path><path d="M889.283 414.524C884.616 420.081 880.265 425.285 875.783 430.619C874.091 429.355 872.66 428.295 871.265 427.236C861.187 419.542 849.714 416.643 837.275 417.999C825.3 419.3 815.929 425.471 809.663 435.581C799.566 451.898 799.473 468.81 808.826 485.425C815.241 496.855 825.84 502.672 838.688 504.01C850.905 505.274 862.284 502.412 872.399 495.424C873.05 491.651 873.069 476.616 872.381 472.342C867.453 472.267 862.433 472.323 857.412 472.304C852.373 472.304 847.334 472.304 842.147 472.304C841.403 469.126 841.831 466.171 841.756 463.254C841.682 460.299 841.756 457.325 841.756 454.686C842.444 453.664 843.188 453.664 843.932 453.664C859.848 453.664 875.765 453.664 891.663 453.664C892.091 453.664 892.5 453.812 892.89 453.868C893.745 457.567 894.024 489.793 893.355 504.661C892.816 505.85 891.607 506.538 890.566 507.337C878.851 516.295 865.743 521.684 851.016 523.283C839.395 524.528 828.09 523.45 817.305 519.082C797.112 510.905 785.137 495.684 781.028 474.479C778.387 460.782 779.392 447.215 785.397 434.41C794.527 414.896 809.681 402.909 830.99 399.061C841.496 397.166 852.039 397.705 862.414 400.158C872.437 402.518 881.139 407.462 889.32 414.543L889.283 414.524Z" fill="#D00910"></path><path d="M1181.25 520.96C1180.69 517.614 1180.5 407.481 1181.02 400.864C1181.66 399.991 1182.61 400.177 1183.46 400.177C1211.85 400.177 1240.25 400.177 1268.62 400.177C1269.2 400.177 1269.76 400.27 1270.28 400.325C1271.04 403.633 1271.21 413.483 1270.59 419.17C1266.84 419.877 1263.01 419.412 1259.19 419.486C1255.48 419.561 1251.76 419.486 1248.04 419.486H1213.69C1210.01 419.486 1206.31 419.486 1202.71 419.486C1201.94 423.203 1201.89 446.1 1202.61 450.616C1209.2 450.876 1215.83 450.69 1222.49 450.728C1229.18 450.765 1235.86 450.728 1242.55 450.728H1262.5C1263.4 454.054 1263.56 463.663 1262.84 469.257C1261.41 469.963 1259.77 469.628 1258.19 469.628C1241.1 469.647 1224 469.628 1206.91 469.647C1205.46 469.647 1204.01 469.74 1202.63 469.796C1201.94 473.81 1201.92 497.97 1202.63 502.263C1206.37 502.282 1210.2 502.319 1214.03 502.319C1217.9 502.319 1221.76 502.319 1225.63 502.319H1248.37C1252.24 502.319 1256.11 502.319 1259.98 502.319C1263.79 502.319 1267.62 502.356 1271.62 502.393V520.792C1267.93 521.48 1185.26 521.536 1181.23 520.885L1181.25 520.96Z" fill="#D00910"></path><path d="M1562.59 521.146V400.846C1562.86 400.623 1562.97 400.53 1563.1 400.455C1563.21 400.381 1563.36 400.27 1563.47 400.27C1592.01 400.232 1620.55 400.214 1649.11 400.195C1650.01 400.195 1650.9 400.288 1651.77 400.363C1651.88 400.363 1652 400.548 1652.4 400.92C1652.76 406.681 1652.48 412.721 1652.57 418.687C1651.03 420.081 1649.3 419.486 1647.76 419.486C1628.14 419.542 1608.5 419.505 1588.87 419.542C1587.29 419.542 1585.63 419.245 1583.92 419.895V450.374C1587.29 451.266 1590.71 450.653 1594.07 450.765C1597.35 450.876 1600.62 450.783 1603.89 450.783H1644.15C1645.13 453.98 1644.54 457.084 1644.65 460.131C1644.74 463.086 1644.67 466.041 1644.67 468.996C1643.09 470.223 1641.38 469.684 1639.83 469.703C1622.73 469.74 1605.64 469.721 1588.53 469.74C1587.08 469.74 1585.58 469.387 1584.2 470.112C1583.53 473.996 1583.57 498.453 1584.29 502.375C1591.75 502.468 1599.3 502.412 1606.85 502.412C1614.58 502.412 1622.32 502.412 1630.04 502.412H1652.7C1653.61 505.516 1653.72 516.536 1652.96 520.997C1649.56 521.536 1569.87 521.722 1562.56 521.164L1562.59 521.146Z" fill="#D00910"></path><path d="M2258.2 413.837C2254.35 419.263 2250.69 424.449 2246.88 429.82C2245.26 428.779 2243.9 427.905 2242.56 427.032C2236.3 422.906 2229.64 419.709 2222.22 418.316C2216.48 417.238 2210.71 417.015 2205.02 418.724C2202.86 419.375 2200.93 420.453 2199.11 421.772C2192.23 426.753 2192.36 438.796 2199.85 443.108C2202.85 444.818 2205.9 446.323 2209.17 447.308C2214.43 448.869 2219.73 450.3 2225.05 451.675C2230.51 453.106 2235.91 454.742 2241.06 457.065C2243.21 458.05 2245.33 459.146 2247.36 460.373C2258.7 467.175 2262.81 477.527 2261.75 490.258C2260.15 509.456 2246.8 518.116 2234.72 521.238C2219.86 525.086 2205.25 523.654 2190.98 518.265C2183.14 515.31 2176.09 510.924 2169.66 505.534C2169.08 505.051 2168.39 504.735 2167.5 504.178C2172.04 498.788 2176.13 493.919 2180.27 488.975C2182.15 489.273 2183.17 490.648 2184.4 491.596C2190.31 496.186 2196.65 499.977 2203.89 502.115C2211.4 504.326 2219 505.163 2226.76 503.471C2229.4 502.895 2231.89 501.947 2234.14 500.461C2239.46 496.948 2241.62 491.094 2240 484.924C2239.24 482.043 2237.52 479.924 2235.14 478.233C2231.69 475.799 2227.8 474.312 2223.8 473.178C2218.24 471.58 2212.61 470.223 2207.03 468.736C2201.86 467.361 2196.78 465.726 2191.91 463.477C2189.35 462.287 2186.87 460.931 2184.57 459.295C2178.77 455.151 2174.97 449.687 2173.56 442.625C2172.46 437.161 2172.3 431.678 2173.47 426.27C2175.92 414.97 2182.97 407.388 2193.31 402.649C2200.47 399.378 2208.05 398.188 2215.88 398.393C2228.13 398.709 2239.68 401.589 2250.21 408.038C2252.86 409.655 2255.47 411.346 2258.2 413.855V413.837Z" fill="#D00910"></path><path d="M1407.65 401.255C1402.95 407.927 1398.3 414.617 1393.56 421.27C1385.37 432.756 1377.16 444.223 1368.96 455.708C1368.1 456.898 1367.3 458.143 1366.33 459.574C1369.98 464.703 1373.57 469.777 1377.17 474.851C1380.87 480.054 1384.57 485.258 1388.28 490.462C1391.88 495.536 1395.55 500.609 1399.12 505.72C1402.65 510.794 1406.42 515.7 1409.97 521.257H1384.84C1374.4 506.296 1363.99 491.335 1353.63 476.467C1353.23 476.542 1353.08 476.542 1352.95 476.598C1352.82 476.653 1352.65 476.709 1352.56 476.802C1352.26 477.118 1351.94 477.452 1351.68 477.806C1341.62 492.153 1331.56 506.501 1321.5 520.83C1321.43 520.941 1321.28 521.015 1320.96 521.257H1297.59C1297.33 519.399 1298.67 518.432 1299.49 517.298C1309.58 503.155 1319.74 489.068 1329.87 474.944C1333.42 470 1336.94 465.056 1340.67 459.834C1326.71 440.246 1312.78 420.713 1298.54 400.734C1303.11 399.731 1307.2 400.325 1311.22 400.214C1315.22 400.102 1319.22 400.195 1323.44 400.195C1333.39 414.487 1343.3 428.723 1353.28 443.07C1355.01 442.197 1355.68 440.636 1356.57 439.372C1364.77 427.701 1372.92 416.011 1381.08 404.321C1382.01 403.002 1382.98 401.701 1383.96 400.325H1407.22C1407.35 400.641 1407.5 400.957 1407.63 401.292L1407.65 401.255Z" fill="#D00910"></path><path d="M535.511 453.515C535.976 459.555 535.604 465.595 535.734 472.044C530.268 472.063 525.247 472.1 520.227 472.1C515.169 472.1 510.112 472.1 505.054 472.1H490.328C485.289 472.1 480.25 472.1 475.378 472.1C474.132 473.438 474.578 474.832 474.578 476.096C474.541 489.607 474.578 503.137 474.541 516.648C474.541 518.098 474.913 519.603 473.909 521.387C467.308 521.387 460.54 521.424 454.069 521.35C453.679 520.96 453.548 520.867 453.474 520.737C453.4 520.625 453.344 520.476 453.344 520.346C453.307 481.281 453.288 442.216 453.27 403.15C453.27 402.555 453.27 401.961 453.363 401.385C453.4 401.124 453.586 400.864 453.716 400.623C457.453 400.009 539.212 400.009 543.544 400.678C543.693 406.774 543.6 412.944 543.581 419.431C538.821 420.062 534.247 419.635 529.71 419.728C525.247 419.802 520.785 419.728 516.322 419.728H489.1C484.508 419.728 479.915 419.728 475.397 419.728C474.374 422.813 474.039 442.178 474.783 451.75C474.727 452.437 475.08 452.642 475.713 452.493C477.628 452.549 479.543 452.642 481.458 452.642C497.542 452.642 513.645 452.642 529.729 452.642C531.346 452.642 532.964 452.735 534.582 452.79C534.898 453.032 535.195 453.292 535.511 453.534V453.515Z" fill="#D00910"></path><path d="M1530.65 400.325C1531.34 405.12 1531.26 416.438 1530.48 420.025C1518.01 419.988 1505.42 420.081 1492.46 420.248C1492.22 424.764 1492.37 428.89 1492.33 433.016C1492.31 437.179 1492.33 441.324 1492.33 445.487V520.681C1489.28 521.554 1478.68 521.777 1471.35 521.164C1470.31 519.715 1470.83 518.023 1470.83 516.462C1470.8 486.169 1470.81 455.876 1470.81 425.582C1470.81 423.965 1470.81 422.367 1470.81 421.01C1469.51 419.784 1468.27 420.193 1467.13 420.193C1457.17 420.155 1447.22 420.174 1437.25 420.174H1432.98C1432.16 416.662 1431.99 407.388 1432.53 400.846C1433.18 400.009 1434.13 400.195 1435 400.195C1466.22 400.195 1497.44 400.195 1528.66 400.195C1529.26 400.195 1529.83 400.288 1530.67 400.344L1530.65 400.325Z" fill="#D00910"></path><path d="M1843.94 400.177C1844.56 405.864 1844.43 517.614 1843.87 520.941C1840.52 521.517 1828.7 521.61 1823.56 521.108C1823.45 520.997 1823.34 520.904 1823.25 520.792C1823.17 520.681 1823.1 520.532 1823.08 520.402C1823.04 518.618 1822.99 516.834 1822.99 515.05C1822.99 477.174 1823.02 439.298 1823.06 401.422C1823.06 401.162 1823.27 400.901 1823.56 400.214C1830.15 400.102 1836.93 400.177 1843.92 400.177H1843.94Z" fill="#D00910"></path><path d="M597.541 521.201H577.311C577.162 521.015 577.069 520.904 576.976 520.774C576.902 520.662 576.753 520.532 576.753 520.402C576.716 481.095 576.697 441.788 576.679 402.463C576.679 401.886 576.79 401.31 576.846 400.79C580.156 399.972 593.469 399.898 597.579 400.623C598.174 404.544 598.155 517.205 597.523 521.183L597.541 521.201Z" fill="#D00910"></path><path d="M530.565 299.075C531.141 307.736 530.937 327.101 530.212 330.558H499.308C498.509 327.547 498.304 304.762 499.011 299.001C502.451 298.295 506.002 298.741 509.516 298.666C513.068 298.592 516.638 298.573 520.189 298.666C523.666 298.759 527.199 298.202 530.584 299.057L530.565 299.075Z" fill="#D00910"></path><path d="M454.348 330.409V299.168C458.178 298.462 482.295 298.462 486.33 299.224C486.367 309.464 486.33 319.779 486.33 330.019C482.983 330.911 461.525 331.152 454.329 330.409H454.348Z" fill="#D00910"></path><path d="M498.862 284.616V253.691C501.707 252.855 523.797 252.613 530.193 253.338C530.937 256.423 531.067 279.877 530.379 284.616C526.865 285.304 502.972 285.322 498.881 284.616H498.862Z" fill="#D00910"></path><path d="M486.088 253.431C486.609 259.805 486.46 281.345 485.884 284.69C482.425 285.229 461.86 285.378 454.85 284.932C453.995 282.07 453.716 261.013 454.441 253.616C457.453 252.892 480.51 252.724 486.107 253.431H486.088Z" fill="#D00910"></path><path d="M1407.65 401.255C1407.52 400.939 1407.37 400.623 1407.24 400.288C1407.46 400.288 1407.8 400.232 1407.91 400.363C1408.21 400.716 1407.95 401.013 1407.65 401.255Z" fill="#D00910"></path><path d="M475.713 452.474C475.099 452.623 474.746 452.419 474.783 451.731C475.099 451.973 475.397 452.214 475.713 452.474Z" fill="#D00910"></path><path d="M535.512 453.515C535.196 453.274 534.898 453.013 534.582 452.772C535.214 452.623 535.549 452.828 535.512 453.515Z" fill="#D00910"></path></svg> 